<svg xmlns="http://www.w3.org/2000/svg" xml:space="preserve" width="129" height="20" aria-label="A-SIT Plus: official"><defs><clipPath id="c" clipPathUnits="userSpaceOnUse"><path d="M0 595.3h841.9V0H0Z"/></clipPath></defs><linearGradient id="b" x2="0" y2="100%"><stop offset="0" stop-color="#bbb" stop-opacity=".1"/><stop offset="1" stop-opacity=".1"/></linearGradient><clipPath id="a"><rect width="129" height="20" fill="#fff" rx="3"/></clipPath><g clip-path="url(#a)"><path fill="#fff" d="M0 0h84v20H0z"/><path fill="#005b79" d="M84 0h45v20H84z"/><path fill="url(#b)" d="M0 0h129v20H0z"/></g><text x="515" y="150" fill="#ccc" fill-opacity=".3" aria-hidden="true" font-family="Verdana,Geneva,&quot;DejaVu Sans&quot;,sans-serif" font-size="110" text-anchor="middle" text-rendering="geometricPrecision" textLength="570" transform="scale(.1)">A-SIT Plus</text><text x="515" y="140" fill="#333" font-family="Verdana,Geneva,&quot;DejaVu Sans&quot;,sans-serif" font-size="110" text-anchor="middle" text-rendering="geometricPrecision" textLength="570" transform="scale(.1)">A-SIT Plus</text><text x="1055" y="150" fill="#010101" fill-opacity=".3" aria-hidden="true" font-family="Verdana,Geneva,&quot;DejaVu Sans&quot;,sans-serif" font-size="110" text-anchor="middle" text-rendering="geometricPrecision" textLength="350" transform="scale(.1)">official</text><text x="1055" y="140" fill="#fff" font-family="Verdana,Geneva,&quot;DejaVu Sans&quot;,sans-serif" font-size="110" text-anchor="middle" text-rendering="geometricPrecision" textLength="350" transform="scale(.1)">official</text><rect width="128" height="19" x=".5" y=".5" fill="none" stroke="#333" stroke-dashoffset="17.4" stroke-linecap="round" stroke-linejoin="round" stroke-miterlimit="64.6" ry="2.5"/><g clip-path="url(#c)" transform="matrix(.101 0 0 -.101 -30 42.2)"><path fill="#005b79" d="M415.7 249.5c-7.2.1-14 1-20.2 2.8a52.3 52.3 0 0 0-17.5 8.4 40.4 40.4 0 0 0-12 14.6 45.8 45.8 0 0 0-4.3 19v8.4a.7.7 0 0 0 .7.7h16.5c.4 0 .7-.3.7-.7v-8.2c.3-4.7 1.3-8.7 3.1-12.1a28.5 28.5 0 0 1 8.3-9.6 35.3 35.3 0 0 1 12-5.6 55.4 55.4 0 0 1 12.5-1.7c4.3 0 8.6.7 12.7 1.8a35 35 0 0 1 12 5.5 28.5 28.5 0 0 1 8.2 9.6c2 3.6 3 8 3.2 13v24.1h-89.2a.7.7 0 0 0-.7.7v22.9a46 46 0 0 0 4.4 19.3 40.4 40.4 0 0 0 12 14.5c5 3.8 10.8 6.6 17.4 8.5a77.5 77.5 0 0 0 20 2.8c7.2-.1 14-1 20.2-2.8a52.3 52.3 0 0 0 17.5-8.4 40.4 40.4 0 0 0 12-14.6c1.5-3.3 3.7-10 3.7-14.7 0-.4-.2-.7-.5-.8l-17-.4c-.1 0-.3.3-.3.5v.6c-.5 2.9-1.4 5.4-2.7 7.7a28.5 28.5 0 0 1-8.2 9.6 35 35 0 0 1-12 5.6 55.3 55.3 0 0 1-12.5 1.7c-4.3 0-8.6-.7-12.8-1.8a35 35 0 0 1-12-5.5 28.5 28.5 0 0 1-8.2-9.6 27.9 27.9 0 0 1-3-12.2v-7.5h89.1a.7.7 0 0 0 .7-.7v-39.5a46.4 46.4 0 0 0-4.4-20 40.4 40.4 0 0 0-12-14.6 52.4 52.4 0 0 0-17.4-8.5 77.6 77.6 0 0 0-20-2.8z"/><path fill="#ce492e" d="M419.4 280.6h-7.6a.7.7 0 0 0-.7.7v15.5a8.2 8.2 0 0 0-3.8 6.9 8.3 8.3 0 0 0 16.6 0 8.3 8.3 0 0 0-3.8-7v-15.4a.7.7 0 0 0-.7-.7"/></g></svg>
