<?xml version="1.0" encoding="UTF-8" standalone="no"?>
<!-- Created with Inkscape (http://www.inkscape.org/) -->

<svg
   version="1.1"
   id="svg2"
   width="421.91959"
   height="124.01466"
   viewBox="0 0 421.91958 124.01466"
   sodipodi:docname="logo.svg"
   inkscape:version="1.2.2 (b0a8486541, 2022-12-01)"
   xmlns:inkscape="http://www.inkscape.org/namespaces/inkscape"
   xmlns:sodipodi="http://sodipodi.sourceforge.net/DTD/sodipodi-0.dtd"
   xmlns="http://www.w3.org/2000/svg"
   xmlns:svg="http://www.w3.org/2000/svg">
  <defs
     id="defs6">
    <clipPath
       clipPathUnits="userSpaceOnUse"
       id="clipPath18">
      <path
         d="M 0,595.28 H 841.89 V 0 H 0 Z"
         id="path16" />
    </clipPath>
  </defs>
  <sodipodi:namedview
     id="namedview4"
     pagecolor="#ffffff"
     bordercolor="#000000"
     borderopacity="0.25"
     inkscape:showpageshadow="2"
     inkscape:pageopacity="0.0"
     inkscape:pagecheckerboard="0"
     inkscape:deskcolor="#d1d1d1"
     showgrid="false"
     inkscape:zoom="1.2939289"
     inkscape:cx="215.23593"
     inkscape:cy="108.97044"
     inkscape:window-width="3072"
     inkscape:window-height="1653"
     inkscape:window-x="0"
     inkscape:window-y="0"
     inkscape:window-maximized="1"
     inkscape:current-layer="g10">
    <inkscape:page
       x="0"
       y="0"
       id="page8"
       width="421.91959"
       height="124.01466" />
  </sodipodi:namedview>
  <g
     id="g10"
     inkscape:groupmode="layer"
     inkscape:label="Page 1"
     transform="matrix(1.3333333,0,0,-1.3333333,-346.4732,506.57665)">
    <g
       id="g12">
      <g
         id="g14"
         clip-path="url(#clipPath18)">
        <g
           id="g20"
           transform="translate(375.1406,323.069)">
          <path
             d="m 0,0 h -35.574 c -0.264,0 -0.478,0.214 -0.478,0.478 v 9.848 c 0,0.264 0.214,0.477 0.478,0.477 H 0 c 0.264,0 0.478,-0.213 0.478,-0.477 V 0.478 C 0.478,0.214 0.264,0 0,0"
             style="fill:#005b79;fill-opacity:1;fill-rule:nonzero;stroke:none"
             id="path22" />
        </g>
        <g
           id="g24"
           transform="translate(300.8298,365.6518)">
          <path
             d="M 0,0 11.357,-31.779 H -11.547 Z M 41.44,-76.062 7.096,11.831 C 7.024,12.015 6.848,12.136 6.651,12.136 H -6.274 c -0.198,0 -0.375,-0.121 -0.445,-0.305 l -34.224,-87.893 c -0.056,-0.147 -0.038,-0.311 0.052,-0.442 0.089,-0.131 0.237,-0.209 0.395,-0.209 h 11.94 c 0.2,0 0.38,0.125 0.449,0.311 l 9.733,26.156 2.867,7.663 h 30.775 l 2.865,-7.663 9.489,-26.152 c 0.067,-0.188 0.248,-0.315 0.449,-0.315 h 12.924 c 0.158,0 0.305,0.078 0.395,0.209 0.089,0.131 0.108,0.297 0.05,0.442"
             style="fill:#005b79;fill-opacity:1;fill-rule:nonzero;stroke:none"
             id="path26" />
        </g>
        <g
           id="g28"
           transform="translate(423.7412,286.9215)">
          <path
             d="m 0,0 h -0.004 c -4.794,0.049 -9.345,0.667 -13.53,1.84 -4.43,1.241 -8.377,3.151 -11.73,5.678 -3.369,2.536 -6.068,5.824 -8.02,9.772 -1.799,3.631 -2.781,7.941 -2.922,12.806 -0.002,0.127 -0.008,1.783 -0.01,4.109 -0.003,1.233 -0.003,1.366 -0.005,1.456 -0.003,0.129 0.047,0.252 0.137,0.344 0.09,0.091 0.213,0.143 0.34,0.143 h 11.081 c 0.261,0 0.474,-0.209 0.479,-0.471 0.001,-0.08 0.002,-0.448 0.005,-1.475 0.004,-1.744 0.009,-3.902 0.016,-4.069 0.14,-3.086 0.837,-5.81 2.07,-8.095 1.393,-2.591 3.25,-4.754 5.524,-6.428 2.285,-1.683 4.986,-2.941 8.025,-3.741 2.703,-0.711 5.511,-1.113 8.35,-1.197 0.029,0.008 0.058,0.012 0.089,0.012 2.899,0.069 5.777,0.476 8.552,1.204 3.039,0.799 5.739,2.058 8.024,3.741 2.274,1.673 4.132,3.835 5.524,6.426 1.319,2.444 2.021,5.382 2.093,8.734 0.003,0.204 0.004,11.937 0.005,16.162 h -59.837 c -0.264,0 -0.477,0.214 -0.477,0.478 v 9.848 c 0,0.02 0,0.04 0.004,0.061 0.003,5.656 0.006,5.403 0.006,5.462 0.132,4.904 1.117,9.245 2.927,12.902 1.951,3.947 4.649,7.235 8.02,9.773 3.353,2.526 7.3,4.436 11.73,5.678 4.204,1.178 8.724,1.804 13.433,1.858 4.802,-0.048 9.354,-0.667 13.538,-1.84 4.429,-1.24 8.376,-3.151 11.729,-5.677 3.37,-2.537 6.068,-5.824 8.02,-9.773 1.082,-2.187 2.526,-6.736 2.526,-9.852 0,-0.257 -0.115,-0.495 -0.364,-0.552 l -11.33,-0.261 c -0.13,-0.03 -0.229,0.225 -0.229,0.355 0,0.183 -0.021,0.276 -0.043,0.405 -0.335,1.893 -0.924,3.629 -1.751,5.158 -1.392,2.591 -3.249,4.753 -5.524,6.427 -2.285,1.684 -4.985,2.942 -8.024,3.741 -2.702,0.711 -5.511,1.113 -8.35,1.197 -0.029,-0.007 -0.057,-0.01 -0.088,-0.011 -2.901,-0.069 -5.778,-0.476 -8.553,-1.205 -3.039,-0.798 -5.74,-2.057 -8.025,-3.74 -2.273,-1.673 -4.131,-3.836 -5.524,-6.427 -1.246,-2.309 -1.943,-5.064 -2.075,-8.189 -0.003,-0.146 -0.007,-2.737 -0.009,-5.012 h 59.826 c 0.265,0 0.479,-0.214 0.479,-0.478 L 36.126,42.442 c 0,-5.416 0,-11.555 -0.002,-11.67 C 36.053,25.635 35.065,21.105 33.186,17.309 31.236,13.363 28.538,10.074 25.166,7.537 21.813,5.011 17.866,3.1 13.437,1.858 9.234,0.68 4.712,0.055 0.006,0 Z"
             style="fill:#005b79;fill-opacity:1;fill-rule:nonzero;stroke:none"
             id="path30" />
        </g>
        <g
           id="g32"
           transform="translate(492.3214,288.9386)">
          <path
             d="m 0,0 h -11.695 c -0.264,0 -0.478,0.215 -0.478,0.478 v 87.893 c 0,0.264 0.214,0.478 0.478,0.478 H 0 c 0.264,0 0.478,-0.214 0.478,-0.478 V 0.478 C 0.478,0.215 0.264,0 0,0"
             style="fill:#005b79;fill-opacity:1;fill-rule:nonzero;stroke:none"
             id="path34" />
        </g>
        <g
           id="g36"
           transform="translate(546.5206,288.9386)">
          <path
             d="m 0,0 h -11.695 c -0.264,0 -0.477,0.215 -0.477,0.478 v 77.568 h -28.821 c -0.264,0 -0.477,0.213 -0.477,0.477 v 9.848 c 0,0.264 0.213,0.478 0.477,0.478 h 70.288 c 0.265,0 0.479,-0.214 0.479,-0.478 v -9.848 c 0,-0.264 -0.214,-0.477 -0.479,-0.477 H 0.478 V 0.478 C 0.478,0.215 0.264,0 0,0"
             style="fill:#005b79;fill-opacity:1;fill-rule:nonzero;stroke:none"
             id="path38" />
        </g>
        <g
           id="g40"
           transform="translate(426.2353,306.1102)">
          <path
             d="M 0,0 H -5.083 C -5.347,0 -5.56,0.214 -5.56,0.478 v 10.344 c -1.593,1.033 -2.534,2.746 -2.534,4.636 0,3.06 2.49,5.55 5.55,5.55 3.061,0 5.551,-2.49 5.551,-5.55 0,-1.859 -0.962,-3.609 -2.527,-4.632 V 0.478 C 0.48,0.214 0.264,0 0,0"
             style="fill:#ce492e;fill-opacity:1;fill-rule:nonzero;stroke:none"
             id="path42" />
        </g>
        <g
           id="g44"
           transform="translate(375.1406,323.069)">
          <path
             d="m 0,0 h -35.574 c -0.264,0 -0.478,0.214 -0.478,0.478 v 9.848 c 0,0.264 0.214,0.477 0.478,0.477 H 0 c 0.264,0 0.478,-0.213 0.478,-0.477 V 0.478 C 0.478,0.214 0.264,0 0,0"
             style="fill:#005b79;fill-opacity:1;fill-rule:nonzero;stroke:none"
             id="path46" />
        </g>
      </g>
    </g>
  </g>
</svg>
