<?xml version="1.0" encoding="UTF-8" standalone="no"?>
<!-- Created with Inkscape (http://www.inkscape.org/) -->

<svg
   version="1.1"
   id="svg5004"
   width="421.91971"
   height="166.24864"
   viewBox="0 0 421.9197 166.24864"
   sodipodi:docname="logo_kurzertext.svg"
   inkscape:version="1.2.2 (b0a8486541, 2022-12-01)"
   xmlns:inkscape="http://www.inkscape.org/namespaces/inkscape"
   xmlns:sodipodi="http://sodipodi.sourceforge.net/DTD/sodipodi-0.dtd"
   xmlns="http://www.w3.org/2000/svg"
   xmlns:svg="http://www.w3.org/2000/svg">
  <defs
     id="defs5008">
    <clipPath
       clipPathUnits="userSpaceOnUse"
       id="clipPath5020">
      <path
         d="M 0,595.28 H 841.89 V 0 H 0 Z"
         id="path5018" />
    </clipPath>
    <clipPath
       clipPathUnits="userSpaceOnUse"
       id="clipPath5052">
      <path
         d="M 0,595.28 H 841.89 V 0 H 0 Z"
         id="path5050" />
    </clipPath>
  </defs>
  <sodipodi:namedview
     id="namedview5006"
     pagecolor="#ffffff"
     bordercolor="#000000"
     borderopacity="0.25"
     inkscape:showpageshadow="2"
     inkscape:pageopacity="0.0"
     inkscape:pagecheckerboard="0"
     inkscape:deskcolor="#d1d1d1"
     showgrid="false"
     inkscape:zoom="1.2939289"
     inkscape:cx="212.91741"
     inkscape:cy="102.78772"
     inkscape:window-width="3072"
     inkscape:window-height="1653"
     inkscape:window-x="0"
     inkscape:window-y="0"
     inkscape:window-maximized="1"
     inkscape:current-layer="g5012">
    <inkscape:page
       x="0"
       y="0"
       id="page5010"
       width="421.91971"
       height="166.24864" />
  </sodipodi:namedview>
  <g
     id="g5012"
     inkscape:groupmode="layer"
     inkscape:label="Page 1"
     transform="matrix(1.3333333,0,0,-1.3333333,-348.44413,500.38799)">
    <g
       id="g5014">
      <g
         id="g5016"
         clip-path="url(#clipPath5020)">
        <g
           id="g5022"
           transform="translate(427.7136,298.458)">
          <path
             d="M 0,0 H -5.083 C -5.347,0 -5.56,0.214 -5.56,0.478 v 10.344 c -1.593,1.033 -2.534,2.746 -2.534,4.636 0,3.06 2.49,5.55 5.55,5.55 3.061,0 5.551,-2.49 5.551,-5.55 0,-1.859 -0.962,-3.609 -2.527,-4.632 V 0.478 C 0.48,0.214 0.264,0 0,0"
             style="fill:#ce492e;fill-opacity:1;fill-rule:nonzero;stroke:none"
             id="path5024" />
        </g>
        <g
           id="g5026"
           transform="translate(302.308,361.0103)">
          <path
             d="M 0,0 11.357,-31.779 H -11.547 Z M 41.44,-76.062 7.096,11.831 C 7.024,12.015 6.848,12.136 6.651,12.136 H -6.274 c -0.198,0 -0.375,-0.121 -0.445,-0.305 l -34.224,-87.893 c -0.056,-0.147 -0.038,-0.311 0.052,-0.442 0.089,-0.131 0.237,-0.209 0.395,-0.209 h 11.94 c 0.2,0 0.38,0.125 0.449,0.311 l 9.733,26.156 2.867,7.663 h 30.775 l 2.865,-7.663 9.489,-26.152 c 0.067,-0.188 0.248,-0.315 0.449,-0.315 h 12.924 c 0.158,0 0.305,0.078 0.395,0.209 0.089,0.131 0.108,0.297 0.05,0.442"
             style="fill:#005b79;fill-opacity:1;fill-rule:nonzero;stroke:none"
             id="path5028" />
        </g>
        <g
           id="g5030"
           transform="translate(425.2195,282.28)">
          <path
             d="m 0,0 h -0.004 c -4.794,0.049 -9.345,0.667 -13.53,1.84 -4.43,1.241 -8.377,3.151 -11.73,5.678 -3.369,2.536 -6.068,5.824 -8.02,9.772 -1.799,3.631 -2.781,7.941 -2.922,12.806 -0.002,0.127 -0.008,1.783 -0.01,4.109 -0.003,1.233 -0.003,1.366 -0.005,1.456 -0.003,0.129 0.047,0.252 0.137,0.344 0.09,0.091 0.213,0.143 0.34,0.143 h 11.081 c 0.261,0 0.474,-0.209 0.479,-0.471 0.001,-0.08 0.002,-0.448 0.005,-1.475 0.004,-1.744 0.009,-3.902 0.016,-4.069 0.14,-3.086 0.837,-5.81 2.07,-8.095 1.393,-2.591 3.249,-4.754 5.524,-6.428 2.285,-1.683 4.986,-2.941 8.025,-3.741 2.703,-0.711 5.511,-1.113 8.35,-1.197 0.029,0.008 0.058,0.012 0.089,0.012 2.899,0.069 5.777,0.476 8.552,1.204 3.039,0.799 5.739,2.058 8.024,3.741 2.274,1.673 4.132,3.835 5.524,6.426 1.319,2.444 2.021,5.382 2.093,8.734 0.003,0.204 0.004,11.937 0.005,16.162 h -59.837 c -0.264,0 -0.477,0.214 -0.477,0.478 v 9.848 c 0,0.02 0,0.04 0.004,0.061 0.003,5.656 0.006,5.403 0.006,5.462 0.132,4.904 1.117,9.245 2.927,12.902 1.951,3.947 4.649,7.235 8.02,9.773 3.353,2.526 7.3,4.436 11.73,5.678 4.204,1.178 8.724,1.804 13.433,1.858 4.802,-0.048 9.354,-0.667 13.538,-1.84 4.429,-1.24 8.376,-3.151 11.729,-5.677 3.37,-2.537 6.068,-5.824 8.02,-9.773 1.082,-2.187 2.526,-6.736 2.526,-9.852 0,-0.257 -0.115,-0.495 -0.364,-0.552 l -11.33,-0.261 c -0.13,-0.03 -0.229,0.225 -0.229,0.355 0,0.183 -0.021,0.276 -0.043,0.405 -0.335,1.893 -0.924,3.629 -1.751,5.158 -1.392,2.591 -3.249,4.753 -5.524,6.427 -2.285,1.684 -4.985,2.942 -8.024,3.741 -2.702,0.711 -5.511,1.113 -8.35,1.197 -0.029,-0.007 -0.057,-0.01 -0.088,-0.011 -2.901,-0.069 -5.778,-0.476 -8.553,-1.205 -3.039,-0.798 -5.74,-2.057 -8.025,-3.74 -2.273,-1.673 -4.131,-3.836 -5.524,-6.427 -1.246,-2.309 -1.943,-5.064 -2.075,-8.189 -0.003,-0.146 -0.007,-2.737 -0.009,-5.012 h 59.826 c 0.265,0 0.479,-0.214 0.479,-0.478 L 36.126,42.442 c 0,-5.416 0,-11.555 -0.002,-11.67 C 36.053,25.635 35.065,21.105 33.186,17.309 31.236,13.363 28.538,10.074 25.166,7.537 21.813,5.011 17.866,3.1 13.437,1.858 9.234,0.68 4.712,0.055 0.006,0 Z"
             style="fill:#005b79;fill-opacity:1;fill-rule:nonzero;stroke:none"
             id="path5032" />
        </g>
        <g
           id="g5034"
           transform="translate(493.7997,284.2971)">
          <path
             d="m 0,0 h -11.695 c -0.264,0 -0.478,0.215 -0.478,0.478 v 87.893 c 0,0.264 0.214,0.478 0.478,0.478 H 0 c 0.264,0 0.478,-0.214 0.478,-0.478 V 0.478 C 0.478,0.215 0.264,0 0,0"
             style="fill:#005b79;fill-opacity:1;fill-rule:nonzero;stroke:none"
             id="path5036" />
        </g>
        <g
           id="g5038"
           transform="translate(547.9989,284.2971)">
          <path
             d="m 0,0 h -11.695 c -0.264,0 -0.477,0.215 -0.477,0.478 v 77.568 h -28.821 c -0.264,0 -0.477,0.213 -0.477,0.477 v 9.848 c 0,0.264 0.213,0.478 0.477,0.478 h 70.288 c 0.265,0 0.479,-0.214 0.479,-0.478 v -9.848 c 0,-0.264 -0.214,-0.477 -0.479,-0.477 H 0.478 V 0.478 C 0.478,0.215 0.264,0 0,0"
             style="fill:#005b79;fill-opacity:1;fill-rule:nonzero;stroke:none"
             id="path5040" />
        </g>
      </g>
    </g>
    <g
       aria-label="A-SIT Plus GmbH"
       transform="matrix(1,0,0,-1,359.8359,250.7803)"
       id="text5044"
       style="font-size:18px;font-family:Roboto;-inkscape-font-specification:Roboto-Regular;fill:#005b79">
      <path
         d="M 0.25488281,0 5.1328125,-12.796875 H 6.6181641 L 11.513672,0 H 9.7734375 L 8.5517578,-3.3486328 H 3.1992188 L 1.9863281,0 Z M 3.7089844,-4.7373047 H 8.0507813 L 5.8798828,-10.705078 Z"
         id="path5229" />
      <path
         d="m 16.359047,-6.1083984 v 1.3359375 h -4.289063 v -1.3359375 z"
         id="path5231" />
      <path
         d="m 25.009665,-3.234375 q 0,-0.8789062 -0.597657,-1.40625 -0.588867,-0.5273437 -2.487304,-1.0810547 -1.898438,-0.5625 -3.00586,-1.4238281 -1.098633,-0.8701172 -1.098633,-2.3466797 0,-1.4941405 1.186524,-2.4873045 1.195312,-0.993164 3.164062,-0.993164 2.16211,0 3.331055,1.186523 1.177734,1.186524 1.177734,2.6806642 h -1.6875 q 0,-1.0722652 -0.694336,-1.7753902 -0.694335,-0.703125 -2.126953,-0.703125 -1.353515,0 -2.003906,0.597656 -0.650391,0.588867 -0.650391,1.4765624 0,0.7998047 0.685547,1.3359375 0.694336,0.5273437 2.25,0.9667969 2.223633,0.6240234 3.243164,1.546875 1.019532,0.9140625 1.019532,2.4082031 0,1.5644531 -1.22168,2.49609373 -1.22168,0.93164062 -3.243164,0.93164062 -1.177734,0 -2.293945,-0.43945313 Q 18.848532,-0.703125 18.127829,-1.5644531 17.415915,-2.4345703 17.415915,-3.7089844 h 1.6875 q 0,1.3095703 0.958007,1.9072266 0.958008,0.5976562 2.188477,0.5976562 1.327148,0 2.039062,-0.5449218 0.720704,-0.553711 0.720704,-1.4853516 z"
         id="path5233" />
      <path
         d="M 30.682688,-12.796875 V 0 h -1.696289 v -12.796875 z"
         id="path5235" />
      <path
         d="m 32.466854,-11.408203 v -1.388672 h 9.887695 v 1.388672 H 38.241268 V 0 h -1.669922 v -11.408203 z"
         id="path5237" />
      <path
         d="M 50.062641,-5.0185547 V 0 h -1.696289 v -12.796875 h 4.719727 q 2.179687,0 3.331054,1.098633 1.160157,1.098633 1.160157,2.8037107 0,1.8544922 -1.160157,2.8652344 -1.151367,1.0107422 -3.331054,1.0107422 z m 0,-6.3896483 v 5.0097655 h 3.023438 q 1.49414,0 2.144531,-0.6943359 0.650391,-0.694336 0.650391,-1.7841797 0,-0.984375 -0.650391,-1.7578129 -0.650391,-0.773437 -2.144531,-0.773437 z"
         id="path5239" />
      <path
         d="M 61.244858,-13.5 V 0 h -1.634766 v -13.5 z"
         id="path5241" />
      <path
         d="m 69.749718,0 -0.03516,-0.94042969 q -0.93164,1.11621094 -2.777343,1.11621094 -1.397461,0 -2.258789,-0.82617187 Q 63.817101,-1.4765625 63.817101,-3.375 v -6.1347656 h 1.625976 v 6.1523437 q 0,1.2832031 0.536133,1.7226563 0.544922,0.430664 1.212891,0.430664 1.836914,0 2.478515,-1.3798828 v -6.9257812 h 1.634766 V 0 Z"
         id="path5243" />
      <path
         d="m 79.307365,-2.5224609 q 0,-0.5185547 -0.386718,-0.9316407 -0.37793,-0.421875 -1.757813,-0.703125 -1.59082,-0.3251953 -2.53125,-0.9404296 -0.94043,-0.6240235 -0.94043,-1.8105469 0,-1.125 0.958008,-1.9511719 0.966797,-0.8261719 2.566407,-0.8261719 1.705078,0 2.663085,0.8701172 0.958008,0.8701172 0.958008,2.100586 h -1.625976 q 0,-0.5888672 -0.518555,-1.1074219 -0.518555,-0.5273438 -1.476562,-0.5273438 -1.010743,0 -1.450196,0.4394532 -0.439453,0.4394531 -0.439453,0.9580078 0,0.5185547 0.404297,0.84375 0.413086,0.3164062 1.740234,0.6152343 1.749024,0.3955079 2.601563,1.0371094 0.861328,0.6416016 0.861328,1.8105469 0,1.2568359 -1.010742,2.03906249 -1.001953,0.78222656 -2.663086,0.78222656 -1.889649,0 -2.891602,-0.96679687 -1.001953,-0.96679688 -1.001953,-2.14453128 h 1.634766 q 0.05273,1.0107422 0.773437,1.397461 0.729492,0.3779297 1.485352,0.3779297 0.993164,0 1.520508,-0.3867188 0.527343,-0.3867187 0.527343,-0.9755859 z"
         id="path5245" />
      <path
         d="M 97.22538,-6.3720703 V -1.6875 q -0.360352,0.5273438 -1.371094,1.1953125 -1.010742,0.66796875 -3.155273,0.66796875 -2.337891,0 -3.840821,-1.59960935 -1.502929,-1.6083985 -1.502929,-4.4824219 v -0.9931641 q 0,-2.8564453 1.335937,-4.4648439 1.335938,-1.608398 3.814453,-1.608398 2.197266,0 3.331055,1.107422 1.142578,1.107421 1.388672,2.8124996 h -1.696289 q -0.175781,-1.0371096 -0.870117,-1.7841796 -0.685547,-0.74707 -2.153321,-0.74707 -1.766601,0 -2.601562,1.248046 -0.834961,1.2392583 -0.84375,3.3750005 V -5.90625 q 0,2.2148437 1.001953,3.4628906 1.001953,1.2392578 2.645508,1.2392578 1.362305,0 1.96875,-0.3164062 0.606445,-0.3251953 0.861328,-0.6152344 v -2.8652344 h -2.961914 v -1.3710937 z"
         id="path5247" />
      <path
         d="m 103.58592,-8.3144531 q -1.59961,0 -2.18847,1.3447265 V 0 h -1.63477 v -9.5097656 h 1.54688 l 0.0439,1.0371093 q 1.02832,-1.2128906 2.8125,-1.2128906 0.91406,0 1.62598,0.3691406 0.7207,0.3603516 1.09863,1.1601563 0.47461,-0.6855469 1.23047,-1.1074219 0.76465,-0.421875 1.79297,-0.421875 1.52929,0 2.35547,0.8173828 0.83496,0.8173828 0.83496,2.6191407 V 0 h -1.63477 v -6.2666016 q 0,-1.1953125 -0.55371,-1.6171875 -0.54492,-0.430664 -1.47656,-0.430664 -0.98438,0 -1.54688,0.5888672 -0.5625,0.5800781 -0.65039,1.415039 V 0 h -1.62597 v -6.2578125 q 0,-1.1162109 -0.55372,-1.5820312 -0.55371,-0.4746094 -1.47656,-0.4746094 z"
         id="path5249" />
      <path
         d="m 123.59904,-4.6494141 q 0,2.0830078 -0.9668,3.4541016 -0.9668,1.37109375 -2.7334,1.37109375 -1.80176,0 -2.77734,-1.27441405 L 117.03361,0 h -1.49414 v -13.5 h 1.63476 v 5.0185547 q 0.9668,-1.2041016 2.70703,-1.2041016 1.79297,0 2.75098,1.3359375 0.9668,1.3359375 0.9668,3.515625 z m -4.12207,-3.665039 q -0.8877,0 -1.44141,0.430664 -0.55371,0.421875 -0.86133,1.0458985 v 4.1396484 q 0.31641,0.6328125 0.87891,1.0634766 0.5625,0.430664 1.4414,0.430664 1.31836,0 1.88965,-1.0107422 0.58008,-1.0195312 0.58008,-2.4345703 v -0.1845703 q 0,-1.415039 -0.55371,-2.4433593 -0.54492,-1.0371094 -1.93359,-1.0371094 z"
         id="path5251" />
      <path
         d="m 134.03981,0 v -5.9150391 h -6.45117 V 0 h -1.69629 v -12.796875 h 1.69629 v 5.5019531 h 6.45117 v -5.5019531 h 1.6875 V 0 Z"
         id="path5253" />
    </g>
    <g
       id="g5046">
      <g
         id="g5048"
         clip-path="url(#clipPath5052)">
        <g
           id="g5054"
           transform="translate(376.6189,318.3948)">
          <path
             d="m 0,0 h -35.574 c -0.264,0 -0.478,0.214 -0.478,0.478 v 9.848 c 0,0.264 0.214,0.477 0.478,0.477 H 0 c 0.264,0 0.478,-0.213 0.478,-0.477 V 0.478 C 0.478,0.214 0.264,0 0,0"
             style="fill:#005b79;fill-opacity:1;fill-rule:nonzero;stroke:none"
             id="path5056" />
        </g>
        <g
           id="g5058"
           transform="translate(376.6189,318.3948)">
          <path
             d="m 0,0 h -35.574 c -0.264,0 -0.478,0.214 -0.478,0.478 v 9.848 c 0,0.264 0.214,0.477 0.478,0.477 H 0 c 0.264,0 0.478,-0.213 0.478,-0.477 V 0.478 C 0.478,0.214 0.264,0 0,0"
             style="fill:#005b79;fill-opacity:1;fill-rule:nonzero;stroke:none"
             id="path5060" />
        </g>
      </g>
    </g>
  </g>
</svg>
