<svg width="1716" height="1057" viewBox="0 0 1716 1057" fill="none" xmlns="http://www.w3.org/2000/svg">
<path d="M1516.1 265.605C1516.1 220.502 1548.68 184.921 1589.77 184.921C1630.87 184.921 1660.93 219.5 1660.93 265.605C1660.93 311.71 1630.36 347.291 1589.77 347.291C1549.18 347.291 1516.1 311.209 1516.1 265.605ZM1374.78 391.391H1432.41V140.821H1374.78V391.391ZM1365.76 57.13C1365.76 78.6791 1383.3 96.219 1403.85 96.219C1424.4 96.219 1441.43 78.6791 1441.43 57.13C1441.43 37.0843 1424.4 20.0455 1403.85 20.0455C1383.3 20.0455 1365.76 37.0843 1365.76 57.13ZM1139.75 265.104C1139.75 220.001 1172.82 184.921 1215.42 184.921C1258.02 184.921 1291.09 220.001 1291.09 265.104C1291.09 310.206 1257.51 347.291 1215.42 347.291C1173.32 347.291 1139.75 310.708 1139.75 265.104ZM1081.11 265.104C1081.11 340.275 1140.25 399.41 1215.42 399.41C1290.59 399.41 1349.72 340.275 1349.72 265.104C1349.72 189.932 1291.59 132.802 1215.42 132.802C1139.25 132.802 1081.11 190.434 1081.11 265.104ZM925.258 391.391H982.89V260.092C982.89 207.974 1010.45 184.921 1056.56 184.921C1065.08 184.921 1071.59 185.422 1077.61 186.926V136.31C1071.59 134.306 1061.07 132.802 1049.54 132.802C971.363 132.802 925.258 181.914 925.258 260.092V391.391ZM694.232 265.605C694.232 220.502 726.806 184.921 767.9 184.921C808.994 184.921 839.062 219.5 839.062 265.605C839.062 311.71 808.492 347.291 767.9 347.291C727.307 347.291 694.232 311.209 694.232 265.605ZM635.599 265.605C635.599 338.27 693.731 399.41 762.387 399.41C790.952 399.41 817.012 387.883 832.547 368.84H835.053V391.391H892.684V-0.00012207H835.053V161.367H832.547C817.513 143.326 791.454 132.802 762.387 132.802C693.23 132.802 635.599 193.44 635.599 265.605ZM383.023 391.391H440.655V244.557C440.655 209.477 464.208 184.921 496.783 184.921C529.357 184.921 552.91 209.477 552.91 244.557V391.391H610.542V244.557C610.542 183.418 561.931 132.802 496.783 132.802C431.634 132.802 383.023 183.418 383.023 244.557V391.391ZM118.421 241.049L180.562 63.1437H183.569L245.711 241.049H118.421ZM1.15381 391.391H66.3022L98.8764 298.179H265.255L297.829 391.391H362.978L218.148 -0.00012207H145.984L1.15381 391.391ZM1584.26 399.41C1612.82 399.41 1638.88 387.883 1654.42 368.84H1656.92V391.391H1714.56V-0.00012207H1656.92V161.367H1654.42C1639.38 143.326 1613.33 132.802 1584.26 132.802C1515.1 132.802 1457.47 193.44 1457.47 265.605C1457.47 337.769 1515.6 399.41 1584.26 399.41Z" fill="#202124"/>
<g clip-path="url(#clip0_446_1914)">
<path d="M1308.55 1030.38C1308.27 1028.52 1307.98 1026.69 1307.67 1024.85C1305.79 1013.48 1303.48 1002.23 1300.76 991.145C1296.01 971.772 1290.03 952.862 1282.9 934.55C1276.87 919.042 1270 903.955 1262.39 889.331C1252.58 870.555 1241.52 852.529 1229.31 835.387C1214.34 814.379 1197.63 794.697 1179.37 776.561C1171.71 768.94 1163.78 761.584 1155.59 754.537C1137.86 739.229 1118.92 725.29 1098.96 712.831C1099.13 712.544 1099.29 712.235 1099.47 711.947C1108.61 696.153 1117.77 680.381 1126.91 664.586C1135.85 649.167 1144.79 633.748 1153.74 618.329C1160.16 607.262 1166.59 596.173 1172.99 585.106C1174.51 582.477 1175.7 579.76 1176.61 576.977C1179.1 569.223 1179.22 561.072 1177.21 553.495C1176.7 551.617 1176.08 549.784 1175.33 547.994C1174.58 546.205 1173.7 544.46 1172.7 542.781C1169.28 537.038 1164.4 532.045 1158.26 528.401C1152.83 525.175 1146.76 523.254 1140.53 522.701C1137.93 522.48 1135.3 522.502 1132.69 522.768C1130.53 522.988 1128.39 523.386 1126.27 523.938C1118.7 525.949 1111.68 530.101 1106.2 536.11C1104.24 538.275 1102.47 540.661 1100.95 543.289C1094.52 554.356 1088.1 565.446 1081.69 576.513L1054.87 622.77C1045.73 638.564 1036.56 654.336 1027.42 670.131C1026.43 671.854 1025.41 673.577 1024.42 675.322C1023.03 674.77 1021.66 674.217 1020.27 673.687C969.862 654.469 915.173 643.954 858.01 643.954C856.443 643.954 854.897 643.954 853.329 643.976C802.504 644.484 753.665 653.32 708.116 669.181C702.839 671.014 697.628 672.958 692.462 674.991C691.535 673.378 690.585 671.765 689.658 670.153C680.517 654.358 671.354 638.586 662.214 622.792C653.272 607.373 644.33 591.954 635.388 576.535C628.963 565.468 622.538 554.379 616.135 543.311C614.611 540.683 612.845 538.297 610.88 536.132C605.404 530.124 598.383 525.971 590.81 523.96C588.691 523.408 586.549 523.011 584.385 522.79C581.78 522.525 579.152 522.502 576.547 522.723C570.321 523.254 564.249 525.175 558.818 528.423C552.68 532.067 547.822 537.06 544.378 542.803C543.384 544.482 542.501 546.227 541.751 548.017C541 549.806 540.36 551.639 539.874 553.517C537.865 561.094 537.975 569.245 540.47 576.999C541.375 579.782 542.568 582.499 544.091 585.128C550.516 596.195 556.941 607.284 563.344 618.352C572.286 633.77 581.228 649.189 590.17 664.608C599.311 680.403 608.473 696.175 617.614 711.969C617.68 712.102 617.769 712.235 617.835 712.367C599.399 723.832 581.846 736.534 565.287 750.428C555.373 758.756 545.813 767.482 536.65 776.605C518.413 794.741 501.699 814.424 486.708 835.431C474.476 852.573 463.414 870.577 453.633 889.375C446.016 903.999 439.15 919.087 433.122 934.594C425.99 952.907 420.007 971.816 415.26 991.189C412.544 1002.28 410.248 1013.5 408.349 1024.9C408.04 1026.73 407.753 1028.59 407.466 1030.42C406.451 1037.03 405.589 1043.67 404.861 1050.37H1311.09C1310.36 1043.67 1309.5 1037.03 1308.49 1030.42L1308.55 1030.38Z" fill="#34A853"/>
<path d="M1093.7 925.046C1111.83 912.975 1114.47 885.051 1099.59 862.675C1084.71 840.299 1057.94 831.946 1039.81 844.016C1021.68 856.087 1019.05 884.011 1033.93 906.387C1048.81 928.763 1075.57 937.117 1093.7 925.046Z" fill="#202124"/>
<path d="M682.814 906.465C697.695 884.089 695.061 856.165 676.93 844.094C658.798 832.023 632.036 840.377 617.155 862.753C602.274 885.129 604.908 913.053 623.039 925.124C641.17 937.194 667.932 928.84 682.814 906.465Z" fill="#202124"/>
</g>
<defs>
<clipPath id="clip0_446_1914">
<rect width="906.232" height="527.777" fill="white" transform="translate(404.927 522.569)"/>
</clipPath>
</defs>
</svg>
