<?xml version="1.0" encoding="UTF-8" standalone="no"?>
<!-- Generator: Adobe Illustrator 25.2.3, SVG Export Plug-In . SVG Version: 6.00 Build 0)  -->

<svg
   version="1.1"
   id="Layer_3"
   x="0px"
   y="0px"
   viewBox="0 0 200 199.99999"
   xml:space="preserve"
   sodipodi:docname="emoji_key.svg"
   width="200"
   height="200"
   inkscape:version="1.3 (0e150ed6c4, 2023-07-21)"
   xmlns:inkscape="http://www.inkscape.org/namespaces/inkscape"
   xmlns:sodipodi="http://sodipodi.sourceforge.net/DTD/sodipodi-0.dtd"
   xmlns="http://www.w3.org/2000/svg"
   xmlns:svg="http://www.w3.org/2000/svg"><defs
   id="defs10" /><sodipodi:namedview
   id="namedview10"
   pagecolor="#ffffff"
   bordercolor="#000000"
   borderopacity="0.25"
   inkscape:showpageshadow="2"
   inkscape:pageopacity="0.0"
   inkscape:pagecheckerboard="0"
   inkscape:deskcolor="#d1d1d1"
   inkscape:zoom="0.92041013"
   inkscape:cx="208.05942"
   inkscape:cy="204.80001"
   inkscape:window-width="1504"
   inkscape:window-height="1289"
   inkscape:window-x="26"
   inkscape:window-y="23"
   inkscape:window-maximized="0"
   inkscape:current-layer="Layer_3" />&#10;<g
   id="g10"
   transform="matrix(1.6667093,0,0,1.6667093,-6.6722225,-6.6643882)">&#10;	<path
   style="fill:#2f7889"
   d="M 119.3,32.62 107.02,18 C 99.9,9.52 87.21,8.42 78.73,15.54 70.25,22.66 69.15,35.35 76.27,43.83 l 12.29,14.63 c 7.12,8.48 19.81,9.58 28.29,2.46 8.48,-7.12 9.57,-19.82 2.45,-28.3 z m -24,21.8 C 93.42,52.18 92.6,49.43 92.58,46.69 92.56,43.55 90.61,40.07 87.01,39.43 84.3,38.95 82.83,39.47 81.4,37.87 76.7,32.62 78.07,24.12 84.28,19.95 88.85,16.88 95,17.22 99.03,20.74 c 2.01,1.76 1.48,3.93 1.8,7.41 0.33,3.52 2.33,5.59 6.28,6.41 3.19,0.67 6.2,2.36 8.09,5.44 2.8,4.55 2.05,10.69 -1.77,14.66 -5.16,5.41 -13.6,5.16 -18.13,-0.24 z"
   id="path1" />&#10;	<path
   style="fill:#2f7889"
   d="m 22.3,103.58 13.05,15.53 c 0.36,0.43 0.9,0.68 1.47,0.68 0.46,0 0.91,-0.16 1.26,-0.46 l 4.86,-4.15 c 0.39,-0.33 0.64,-0.8 0.69,-1.31 0.05,-0.52 -0.1,-1.02 -0.44,-1.42 l -5.21,-6.2 c -0.45,-0.53 -0.38,-1.33 0.15,-1.78 l 3.13,-2.63 c 0.53,-0.45 1.33,-0.38 1.78,0.15 l 5.21,6.2 c 0.36,0.43 0.9,0.68 1.47,0.68 0.46,0 0.91,-0.16 1.26,-0.46 l 4.96,-4.17 c 0.82,-0.69 0.94,-1.91 0.25,-2.73 l -13,-15.48 z"
   id="path2" />&#10;	<path
   style="fill:#90a4af"
   d="M 117.03,29.99 104.74,15.36 C 97.62,6.88 84.93,5.78 76.45,12.9 67.97,20.02 66.87,32.71 73.99,41.19 l 2.95,3.51 -6.4,5.38 -0.07,-0.09 -4.98,-2.59 c -0.47,-0.25 -1.05,-0.18 -1.46,0.16 l -2.61,2.19 c -0.35,0.29 -0.53,0.74 -0.46,1.2 0.33,2.39 1.98,5.52 1.98,5.52 v 0 L 4.22,105.8 c 0,0 -1.13,1.55 1.77,5 2.9,3.45 4.62,2.6 4.62,2.6 l 11.7,-9.83 11.96,14.24 c 0.36,0.43 0.9,0.68 1.47,0.68 0.46,0 0.91,-0.16 1.26,-0.46 l 4.86,-4.15 c 0.39,-0.33 0.64,-0.8 0.69,-1.31 0.05,-0.52 -0.1,-1.02 -0.44,-1.42 l -5.21,-6.2 c -0.45,-0.53 -0.38,-1.33 0.15,-1.78 l 3.13,-2.63 c 0.53,-0.45 1.33,-0.38 1.78,0.15 l 5.21,6.2 c 0.36,0.43 0.9,0.68 1.47,0.68 0.46,0 0.91,-0.16 1.26,-0.46 l 4.96,-4.17 c 0.82,-0.69 0.94,-1.91 0.25,-2.73 L 43.2,86.02 69.33,64.06 v 0 c 0,0 2.44,1.82 5.08,2.83 0.45,0.17 0.96,0.09 1.33,-0.22 l 2.55,-2.14 c 0.41,-0.35 0.57,-0.91 0.41,-1.42 l -1.76,-5.44 v 0 l 6.4,-5.38 2.95,3.51 c 7.12,8.48 19.81,9.58 28.29,2.46 8.47,-7.11 9.57,-19.8 2.45,-28.27 z m -5.86,22.05 C 105.99,57.44 97.55,57.18 93.02,51.79 91.14,49.55 90.25,46.8 90.3,44.06 90.34,41.68 88.63,39.63 86.27,39.26 83.56,38.83 81,37.48 79.12,35.25 74.59,29.86 75.79,21.5 82,17.33 c 4.57,-3.07 10.74,-2.75 14.75,0.79 2.71,2.39 4,5.65 3.97,8.91 -0.02,2.48 1.68,4.5 4.12,4.91 3.22,0.53 6.2,2.36 8.09,5.44 2.81,4.55 2.06,10.68 -1.76,14.66 z"
   id="path3" />&#10;	<path
   style="fill:#2f7889"
   d="m 62.94,56.46 -2.38,2 c 0,0 2.73,1.81 3.24,4.5 0.52,2.7 -0.69,6.32 -0.69,6.32 l 6.21,-5.22 c 0,0 -1.11,-0.67 -3.15,-3.24 -2.03,-2.57 -3.23,-4.36 -3.23,-4.36 z"
   id="path4" />&#10;	<path
   style="fill:#2f7889"
   d="m 76.95,44.7 -1.94,1.63 c 0,0 2.67,2.28 3.01,5.01 0.34,2.73 -1.08,6.34 -1.08,6.34 l 6.4,-5.38 z"
   id="path5" />&#10;	<path
   style="fill:#b9e4ea"
   d="m 64.97,48.43 c 0.48,0.16 5.3,2.67 5.3,2.67 l 5.12,9.72 c 0,0 -3.4,-1.22 -6.45,-5.66 -3.05,-4.44 -3.97,-6.73 -3.97,-6.73 z"
   id="path6" />&#10;	<g
   id="g7">&#10;		<path
   style="fill:#b9e4ea"
   d="m 93.98,14.04 c -0.33,0.06 -0.68,0.03 -1.01,-0.1 -3.15,-1.23 -6.8,-1.02 -9.79,0.57 -0.91,0.48 -2.03,0.14 -2.52,-0.77 -0.48,-0.91 -0.14,-2.04 0.77,-2.52 3.93,-2.09 8.75,-2.37 12.9,-0.75 0.96,0.38 1.43,1.46 1.05,2.41 -0.24,0.63 -0.78,1.05 -1.4,1.16 z"
   id="path7" />&#10;	</g>&#10;	<g
   id="g8">&#10;		<path
   style="fill:#2f7889"
   d="m 24.29,104.58 c -0.66,-0.79 -1.14,-1.47 -0.36,-2.13 L 41.12,88 c 1.17,-0.98 1.76,-1.01 2.42,-0.22 0.66,0.79 0.61,1.45 -0.58,2.67 L 26.32,105.3 c -0.78,0.66 -1.37,0.06 -2.03,-0.72 z"
   id="path8" />&#10;	</g>&#10;	<g
   id="g9">&#10;		<path
   style="fill:#b9e4ea"
   d="m 8.9,106.3 c -0.31,-1.45 1.34,-2.75 1.87,-3.19 L 47.12,72.57 c 0.82,-0.69 1.44,-0.76 1.64,0.25 0.14,0.71 -1.91,2.62 -2.44,3.07 L 11.15,106.98 C 10.62,107.41 9.2,107.7 8.9,106.3 Z"
   id="path9" />&#10;	</g>&#10;</g>&#10;</svg>
