<?xml version="1.0" encoding="UTF-8" standalone="no"?>
<!-- Generator: Adobe Illustrator 25.2.3, SVG Export Plug-In . SVG Version: 6.00 Build 0)  -->

<svg
   version="1.1"
   id="Layer_2"
   x="0px"
   y="0px"
   viewBox="0 0 200 200"
   xml:space="preserve"
   sodipodi:docname="emoji_id.svg"
   width="200"
   height="200"
   inkscape:version="1.3 (0e150ed6c4, 2023-07-21)"
   xmlns:inkscape="http://www.inkscape.org/namespaces/inkscape"
   xmlns:sodipodi="http://sodipodi.sourceforge.net/DTD/sodipodi-0.dtd"
   xmlns="http://www.w3.org/2000/svg"
   xmlns:svg="http://www.w3.org/2000/svg"><defs
   id="defs10" /><sodipodi:namedview
   id="namedview10"
   pagecolor="#ffffff"
   bordercolor="#000000"
   borderopacity="0.25"
   inkscape:showpageshadow="2"
   inkscape:pageopacity="0.0"
   inkscape:pagecheckerboard="0"
   inkscape:deskcolor="#d1d1d1"
   inkscape:zoom="1.3016565"
   inkscape:cx="59.539518"
   inkscape:cy="146.35198"
   inkscape:window-width="1504"
   inkscape:window-height="1289"
   inkscape:window-x="26"
   inkscape:window-y="23"
   inkscape:window-maximized="0"
   inkscape:current-layer="Layer_2" />&#10;<g
   id="g10"
   transform="matrix(1.6666667,0,0,1.6666667,-6.6666688,-6.6666688)">&#10;	<path
   style="fill:#b9e4ea"
   d="M 4,93.33 V 34.67 c 0,-4.68 3.83,-8.5 8.5,-8.5 h 103 c 4.68,0 8.5,3.83 8.5,8.5 v 58.67 c 0,4.68 -3.83,8.5 -8.5,8.5 H 12.5 C 7.83,101.84 4,98.01 4,93.33 Z"
   id="path1" />&#10;	<g
   id="g4">&#10;		<g
   id="g2">&#10;			<path
   style="fill:#ffffff"
   d="M 42.43,89.13 H 15.19 c -0.85,0 -1.54,-0.69 -1.54,-1.54 V 50.57 c 0,-0.85 0.69,-1.54 1.54,-1.54 h 27.24 c 0.85,0 1.54,0.69 1.54,1.54 V 87.6 c 0,0.84 -0.69,1.53 -1.54,1.53 z"
   id="path2" />&#10;		</g>&#10;		<g
   id="g3">&#10;			&#10;				<linearGradient
   id="SVGID_1_"
   gradientUnits="userSpaceOnUse"
   x1="28.813101"
   y1="74.347504"
   x2="28.813101"
   y2="38.979198"
   gradientTransform="matrix(1,0,0,-1,0,128.1102)">&#10;				<stop
   offset="0.1531"
   style="stop-color:#1E88E5"
   id="stop2" />&#10;				<stop
   offset="1"
   style="stop-color:#1565C0"
   id="stop3" />&#10;			</linearGradient>&#10;			<path
   style="fill:url(#SVGID_1_)"
   d="m 43.87,87.95 v 1.18 H 13.75 v -1.18 c 0,-4.63 5.87,-6.87 12.38,-7.34 V 80.29 C 23.39,79.46 20.94,77.4 19.73,74.01 18.49,73.57 17.78,69.5 18.11,68.97 17.87,67.26 16.25,53.85 28.81,53.76 v 0 0 c 12.53,0.06 10.93,13.44 10.67,15.18 0.32,0.53 -0.38,4.6 -1.62,5.04 -1.18,3.39 -3.63,5.48 -6.37,6.31 v 0.29 c 6.55,0.53 12.38,3.01 12.38,7.37 z"
   id="path3" />&#10;		</g>&#10;	</g>&#10;	<path
   style="fill:#2f7889"
   d="m 115.5,26.16 h -103 c -4.68,0 -8.5,3.83 -8.5,8.5 v 5.33 h 120 v -5.33 c 0,-4.67 -3.83,-8.5 -8.5,-8.5 z"
   id="path4" />&#10;	<path
   style="fill:#82aec0"
   d="M 79.09,53.76 H 54.33 c -1.31,0 -2.37,-1.06 -2.37,-2.37 v 0 c 0,-1.31 1.06,-2.37 2.37,-2.37 h 24.76 c 1.31,0 2.37,1.06 2.37,2.37 v 0 c -0.01,1.31 -1.07,2.37 -2.37,2.37 z"
   id="path5" />&#10;	<path
   style="fill:#82aec0"
   d="M 87.96,65.55 H 54.33 c -1.31,0 -2.37,-1.06 -2.37,-2.37 v 0 c 0,-1.31 1.06,-2.37 2.37,-2.37 h 33.63 c 1.31,0 2.37,1.06 2.37,2.37 v 0 c -0.01,1.31 -1.07,2.37 -2.37,2.37 z"
   id="path6" />&#10;	<path
   style="fill:#82aec0"
   d="M 75.27,77.34 H 54.33 c -1.31,0 -2.37,-1.06 -2.37,-2.37 v 0 c 0,-1.31 1.06,-2.37 2.37,-2.37 h 20.94 c 1.31,0 2.37,1.06 2.37,2.37 v 0 c -0.01,1.31 -1.07,2.37 -2.37,2.37 z"
   id="path7" />&#10;	<path
   style="fill:#82aec0"
   d="M 69.57,89.13 H 54.33 c -1.31,0 -2.37,-1.06 -2.37,-2.37 v 0 c 0,-1.31 1.06,-2.37 2.37,-2.37 h 15.24 c 1.31,0 2.37,1.06 2.37,2.37 v 0 c 0,1.31 -1.06,2.37 -2.37,2.37 z"
   id="path8" />&#10;	<g
   id="g9">&#10;		<path
   style="fill:#94d1e0"
   d="m 124,53.79 c -0.17,-0.01 -0.34,-0.03 -0.52,-0.03 -7.84,0 -14.19,6.35 -14.19,14.19 0,7.84 6.35,14.19 14.19,14.19 0.17,0 0.34,-0.02 0.52,-0.03 z"
   id="path9" />&#10;	</g>&#10;</g>&#10;</svg>
