<?xml version="1.0" encoding="UTF-8" standalone="no"?>
<!-- Generator: Adobe Illustrator 25.2.3, SVG Export Plug-In . SVG Version: 6.00 Build 0)  -->

<svg
   version="1.1"
   id="Layer_4_copy"
   x="0px"
   y="0px"
   viewBox="0 0 199.99999 200"
   xml:space="preserve"
   sodipodi:docname="emoji_receipt.svg"
   width="200"
   height="200"
   inkscape:version="1.3 (0e150ed6c4, 2023-07-21)"
   xmlns:inkscape="http://www.inkscape.org/namespaces/inkscape"
   xmlns:sodipodi="http://sodipodi.sourceforge.net/DTD/sodipodi-0.dtd"
   xmlns="http://www.w3.org/2000/svg"
   xmlns:svg="http://www.w3.org/2000/svg"><defs
   id="defs14" /><sodipodi:namedview
   id="namedview14"
   pagecolor="#ffffff"
   bordercolor="#000000"
   borderopacity="0.25"
   inkscape:showpageshadow="2"
   inkscape:pageopacity="0.0"
   inkscape:pagecheckerboard="0"
   inkscape:deskcolor="#d1d1d1"
   inkscape:zoom="1.8408203"
   inkscape:cx="17.111937"
   inkscape:cy="19.284881"
   inkscape:window-width="1504"
   inkscape:window-height="1289"
   inkscape:window-x="26"
   inkscape:window-y="23"
   inkscape:window-maximized="0"
   inkscape:current-layer="Layer_4_copy" />&#10;<g
   id="g14"
   transform="matrix(1.6778523,0,0,1.6778523,-2.159529,-5.1677822)">&#10;	<g
   id="g1">&#10;		<path
   style="fill:#ffffff"
   d="m 106.15,14.34 -6.49,-7.9 -6.49,7.9 -6.49,-7.9 -6.49,7.9 -6.49,-7.9 -6.49,7.9 -6.49,-7.9 -6.49,7.9 -6.49,-7.9 -6.49,7.9 -6.49,-7.9 -6.49,7.9 -6.79,-8.26 h -0.67 l 0.11,116.04 79.08,0.12 c 16.68,0 13.34,-34.81 13.34,-34.81 l 0.02,-81.36 h -0.38 z"
   id="path1" />&#10;	</g>&#10;	<g
   id="g2">&#10;		<circle
   style="fill:#94d1e0"
   cx="65.599998"
   cy="31.23"
   r="8"
   id="circle1" />&#10;	</g>&#10;	<g
   id="g3">&#10;		&#10;			<line
   style="fill:none;stroke:#82aec0;stroke-width:4;stroke-linecap:round;stroke-miterlimit:10"
   x1="32.41"
   y1="47.619999"
   x2="70.889999"
   y2="47.619999"
   id="line2" />&#10;		&#10;			<line
   style="fill:none;stroke:#82aec0;stroke-width:4;stroke-linecap:round;stroke-miterlimit:10"
   x1="88.440002"
   y1="47.619999"
   x2="100.13"
   y2="47.619999"
   id="line3" />&#10;	</g>&#10;	<g
   id="g6">&#10;		&#10;			<line
   style="fill:none;stroke:#82aec0;stroke-width:4;stroke-linecap:round;stroke-miterlimit:10"
   x1="88.440002"
   y1="60.759998"
   x2="100.13"
   y2="60.759998"
   id="line4" />&#10;		&#10;			<line
   style="fill:none;stroke:#82aec0;stroke-width:4;stroke-linecap:round;stroke-miterlimit:10"
   x1="59.32"
   y1="60.759998"
   x2="69.889999"
   y2="60.759998"
   id="line5" />&#10;		&#10;			<line
   style="fill:none;stroke:#82aec0;stroke-width:4;stroke-linecap:round;stroke-miterlimit:10"
   x1="32.41"
   y1="60.759998"
   x2="50.029999"
   y2="60.759998"
   id="line6" />&#10;	</g>&#10;	&#10;		<line
   style="fill:none;stroke:#82aec0;stroke-width:4;stroke-linecap:round;stroke-miterlimit:10"
   x1="82.120003"
   y1="97.940002"
   x2="100.13"
   y2="97.940002"
   id="line7" />&#10;	<g
   id="g9">&#10;		&#10;			<line
   style="fill:none;stroke:#82aec0;stroke-width:4;stroke-linecap:round;stroke-miterlimit:10"
   x1="88.440002"
   y1="73.900002"
   x2="100.13"
   y2="73.900002"
   id="line8" />&#10;		&#10;			<line
   style="fill:none;stroke:#82aec0;stroke-width:4;stroke-linecap:round;stroke-miterlimit:10"
   x1="32.41"
   y1="73.900002"
   x2="63.57"
   y2="73.900002"
   id="line9" />&#10;	</g>&#10;	<g
   id="g13">&#10;		<g
   id="g12">&#10;			&#10;				<line
   style="fill:none;stroke:#82aec0;stroke-width:4;stroke-linecap:round;stroke-miterlimit:10"
   x1="32.810001"
   y1="87.040001"
   x2="33.209999"
   y2="87.040001"
   id="line10" />&#10;			&#10;				<line
   style="fill:none;stroke:#82aec0;stroke-width:4;stroke-linecap:round;stroke-miterlimit:10;stroke-dasharray:0.751, 7.5103"
   x1="40.720001"
   y1="87.040001"
   x2="94.790001"
   y2="87.040001"
   id="line11" />&#10;			&#10;				<line
   style="fill:none;stroke:#82aec0;stroke-width:4;stroke-linecap:round;stroke-miterlimit:10"
   x1="98.550003"
   y1="87.040001"
   x2="98.949997"
   y2="87.040001"
   id="line12" />&#10;		</g>&#10;	</g>&#10;	<path
   style="fill:#6fbff0"
   d="m 115.12,3.04 h -0.25 c 0,0 0,0 0,0 -0.08,0 -1.49,0.03 -3.7,2.4 l -5.01,6.1 -6.5,-7.9 -6.49,7.9 -6.5,-7.9 -6.49,7.9 -6.5,-7.9 -6.49,7.9 -6.49,-7.9 -6.49,7.9 -6.49,-7.9 -6.49,7.9 -6.49,-7.9 -6.49,7.89 -3.38,-4.34 C 21.43,3.06 19.28,3.45 19.19,3.46 l -0.2,0.04 0.1,103.08 -5.39,5.87 -5.76,-6.91 c 0,0 -3.48,5.03 1.01,11.83 3.59,5.45 15.05,4.89 19.73,4.89 l 67.97,0.06 c 11.55,-0.07 14.7,-2.51 16.94,-12.86 1.54,-7.13 1.53,-17.64 1.53,-21.6 z m -44.43,102.51 -6.33,6.91 -6.33,-6.91 -6.33,6.91 -6.33,-6.91 -6.33,6.91 -6.33,-6.91 -6.33,6.91 -3.69,-4.03 -0.09,-98.17 5.66,6.88 6.49,-7.9 6.49,7.9 6.49,-7.9 6.49,7.9 6.49,-7.9 6.49,7.9 6.49,-7.9 6.5,7.9 6.49,-7.9 6.5,7.9 6.49,-7.9 6.5,7.9 5.37,-6.54 -0.02,76.76 v 0.9 c 0.01,4.18 0.05,13.98 -1.45,20.44 -1.54,6.69 -3.97,9.39 -8.95,9.97 -1.48,0.17 -9.25,0.36 -16.45,-13.1 -0.12,-0.23 -0.31,-0.18 -0.35,-0.17 -0.01,0 -0.02,0.01 -0.03,0.01 -0.07,-0.3 -0.11,-0.48 -0.11,-0.48 l -7.15,7.52 z"
   id="path13" />&#10;</g>&#10;</svg>
