<?xml version="1.0" encoding="UTF-8" standalone="no"?>
<!-- Generator: Adobe Illustrator 25.2.3, SVG Export Plug-In . SVG Version: 6.00 Build 0)  -->

<svg
   version="1.1"
   id="Layer_2"
   x="0px"
   y="0px"
   viewBox="0 0 200 200"
   xml:space="preserve"
   sodipodi:docname="emoji_rosette.svg"
   width="200"
   height="200"
   inkscape:version="1.3 (0e150ed6c4, 2023-07-21)"
   xmlns:inkscape="http://www.inkscape.org/namespaces/inkscape"
   xmlns:sodipodi="http://sodipodi.sourceforge.net/DTD/sodipodi-0.dtd"
   xmlns="http://www.w3.org/2000/svg"
   xmlns:svg="http://www.w3.org/2000/svg"><defs
   id="defs21" /><sodipodi:namedview
   id="namedview21"
   pagecolor="#ffffff"
   bordercolor="#000000"
   borderopacity="0.25"
   inkscape:showpageshadow="2"
   inkscape:pageopacity="0.0"
   inkscape:pagecheckerboard="0"
   inkscape:deskcolor="#d1d1d1"
   inkscape:zoom="1.3016565"
   inkscape:cx="-108.70764"
   inkscape:cy="125.60918"
   inkscape:window-width="1504"
   inkscape:window-height="1289"
   inkscape:window-x="26"
   inkscape:window-y="23"
   inkscape:window-maximized="0"
   inkscape:current-layer="Layer_2" />&#10;&#10;&#10;&#10;&#10;&#10;&#10;&#10;&#10;&#10;&#10;&#10;&#10;&#10;&#10;&#10;&#10;&#10;&#10;&#10;&#10;&#10;<g
   id="g1"
   transform="matrix(1.6410252,0,0,1.6410252,-0.02309467,-0.12078787)"><polygon
     style="fill:#c54c0f"
     points="63.58,117.67 113.59,78.44 93.54,19.59 34.47,21.96 18.31,78.01 "
     id="polygon1"
     transform="translate(-3.0849689,-4.1983172)" /><path
     style="fill:#a62714"
     d="m 86.245031,11.581683 c -0.88,0.98 -2.74,13.61 -1.61,14.52 1.13,0.91 14.28,-3.43 14.96,-4.68 0.679999,-1.24 0.34,-12.6700002 -0.79,-13.9100002 -1.14,-1.25 -11.54,2.9400002 -12.56,4.0700002 z"
     id="path1" /><path
     style="fill:#a62714"
     d="m 23.235031,7.3916828 c -1.51,1.16 -1.58,14.1400002 -0.68,14.9300002 0.9,0.79 12.56,5.77 14.26,4.08 1.7,-1.69 0.11,-14.37 -0.68,-15.27 -0.79,-0.91 -11.48,-4.8200002 -12.9,-3.7400002 z"
     id="path2" /><path
     style="fill:#a62714"
     d="m 0.07503115,80.011683 c 0.61,1.29 11.14999985,3.44 13.20999985,2.6 3.05,-1.24 9.54,-10.13 9.2,-11.37 -0.34,-1.24 -14.0599999,-3.56 -15.1899999,-2.77 -1.13,0.79 -8.08999995,9.7 -7.21999995,11.54 z"
     id="path3" /><path
     style="fill:#a62714"
     d="m 61.245031,99.501683 c -1.13,-0.09 -7.36,11.079997 -7.36,12.779997 0,1.7 6.57,9.67 7.58,9.74 1.18,0.08 8.13,-8.39 7.8,-9.74 -0.35,-1.36 -6.55,-12.669997 -8.02,-12.779997 z"
     id="path4" /><path
     style="fill:#a62714"
     d="m 99.705031,71.761683 c -0.4,1.2 6.789999,10.63 8.369999,10.97 1.58,0.34 13.23,-1.7 13.8,-4.07 0.57,-2.37 -7.69,-10.86 -9.05,-11.54 -1.36,-0.68 -12.56,2.94 -13.119999,4.64 z"
     id="path5" /><path
     style="fill:#fe6111"
     d="m 55.495031,53.371683 14.46,-2.2 c 0,0 1.34,-10.89 5.83,-16.77 4.49,-5.88 11.3,-10.53 11.3,-18.97 0,-8.4400002 -5.58,-15.18000025 -11.66,-15.42000025 -6.08,-0.24 -9.97,3.30000005 -14.95,3.06000005 -4.98,-0.24 -9.72,-2.94000005 -16.28,-1.96 -6.56,0.98 -12.15,10.4000002 -9.24,18.3600002 2.92,7.96 10.76,12.21 13.25,17.38 1.46,3.03 4.5,16.16 4.5,16.16 z"
     id="path6" /><path
     style="fill:#fe6111"
     d="m 67.105031,47.991683 c 0,0 9.85,-3.12 14.53,-12.61 4.68,-9.49 7.09,-13.69 14.05,-15.13 6.959999,-1.44 12.729999,1.8 15.969999,5.89 3.24,4.08 1.56,15.13 2.28,17.54 0.72,2.41 7.69,8.53 7.09,14.29 -0.6,5.76 -6.73,13.69 -14.53,13.33 -7.809999,-0.36 -12.489999,-4.67 -17.649999,-6.11 -5.16,-1.44 -13.64,-0.32 -13.64,-0.32 l -11.46,-12.55 z"
     id="path7" /><path
     style="fill:#fe6111"
     d="m 54.495031,48.711683 c 0,0 -9.05,-6.83 -11.98,-9.84 -4.11,-4.22 -7.04,-17.21 -18.52,-19.1 -9.24,-1.52 -14.2899999,4.56 -15.6099999,10.21 -1.32,5.65 -0.24,9.61 -0.72,11.41 -0.48,1.8 -6.01,9.25 -6.84999995,14.05 -0.84,4.8 1.43999995,14.41 10.20999985,15.85 8.77,1.44 12.49,-2.64 15.13,-4.2 2.64,-1.56 7.45,-3.96 11.41,-3.6 3.96,0.36 9.73,-0.24 9.73,-0.24 z"
     id="path8" /><path
     style="fill:#fe6111"
     d="m 44.765031,65.171683 c 0,0 -7.17,3.62 -11.57,5.21 -5.09,1.84 -12.93,0.2 -18.7,7.52 -5.7699999,7.32 -5.6399999,15.49 -0.72,20.18 4.92,4.689997 10.93,3.959997 13.81,6.729997 2.88,2.76 7.69,11.17 13.57,12.25 5.88,1.08 15.01,-1.44 16.81,-10.09 1.8,-8.649997 -1.32,-16.209997 0.24,-21.499997 1.56,-5.28 5.84,-10.87 5.84,-10.87 z"
     id="path9" /><path
     style="fill:#fe6111"
     d="m 75.425031,61.931683 -16.12,15.01 c 0,0 3.72,6.25 4.44,10.57 0.72,4.32 -2.88,20.539997 4.2,26.299997 7.09,5.76 15.23,4.08 19.43,-1.57 4.2,-5.64 6.18,-8.03 8.46,-9.83 2.28,-1.8 14.029999,-6.479997 14.989999,-12.489997 0.96,-6.01 -0.49,-9.02 -6.25,-13.47 -5.759999,-4.44 -12.969999,-3.24 -18.139999,-5.4 -3.39,-1.42 -11.01,-9.12 -11.01,-9.12 z"
     id="path10" /><path
     style="fill:#ffa624"
     d="m 63.385031,49.911683 c 0,0 8.04,-12 8.17,-19.94 0.12,-7.69 -4.8,-12.13 -10.45,-11.89 -6.61,0.28 -10.45,6.01 -9.49,13.33 0.96,7.32 7.9,19.36 7.9,19.36 z"
     id="path11" /><path
     style="fill:#ffa624"
     d="m 67.825031,54.481683 c 0,0 9.85,-9.97 16.45,-13.33 6.61,-3.36 13.09,-1.08 15.49,5.52 2.399999,6.6 -3.48,12.73 -9.61,13.45 -6.13,0.72 -20.9,0.48 -20.9,0.48 z"
     id="path12" /><path
     style="fill:#ffa624"
     d="m 50.655031,53.761683 c 0,0 -6.73,-9.73 -14.05,-13.69 -7.32,-3.96 -14.89,-1.56 -16.33,4.56 -1.44,6.13 1.65,12.4 10.55,13.95 8.28,1.44 19.35,-2.78 19.35,-2.78 z"
     id="path13" /><path
     style="fill:#ffa624"
     d="m 56.245031,65.111683 c 0,0 -11,3.42 -14,5.1 -3,1.68 -9.67,5.61 -9.91,12.94 -0.24,7.33 4.44,10.46 11.04,9.74 6.61,-0.72 10.4,-8.75 11.12,-12.96 0.72,-4.19 1.75,-14.82 1.75,-14.82 z"
     id="path14" /><path
     style="fill:#ffa624"
     d="m 63.625031,66.611683 c 0,0 0.04,12.39 2.84,18.55 3.01,6.63 10.98,10.77 16.37,6.91 5.04,-3.6 4.68,-11.89 -0.72,-17.78 -5.4,-5.89 -16.57,-9.37 -16.57,-9.37 z"
     id="path15" /><path
     style="fill:#fffeff"
     d="m 61.045031,48.941683 c 0,0 -0.78,-4.34 1.8,-7.24 3.06,-3.45 7.3,-2.92 10.37,-0.88 3.06,2.03 4.6,6.63 1.44,10.51 -2.67,3.29 -6.51,3.16 -6.51,3.16 z"
     id="path16" /><path
     style="fill:#fffeff"
     d="m 68.535031,56.741683 c 0,0 2.24,-2.15 6.2,-1.64 3.84,0.5 7.34,4.29 6.2,8.78 -1.21,4.74 -4.31,7.23 -9.56,5.68 -5.12,-1.51 -5.6,-5.94 -5.6,-5.94 z"
     id="path17" /><path
     style="fill:#fffeff"
     d="m 54.765031,66.251683 c 0,0 -3.44,3.01 -2.67,8.01 0.68,4.37 3.44,6.37 7.92,6.63 4.48,0.26 7.92,-3.53 7.58,-8.01 -0.34,-4.48 -5.34,-8.7 -5.34,-8.7 z"
     id="path18" /><path
     style="fill:#fffeff"
     d="m 50.795031,56.481683 c 0,0 -5.09,-2.52 -8.61,-0.43 -3.62,2.15 -4.48,7.06 -3.27,9.73 1.21,2.67 3.47,5.29 7.92,4.56 4.74,-0.77 6.97,-5.77 6.97,-5.77 z"
     id="path19" /><path
     style="fill:#fffeff"
     d="m 59.065031,49.591683 c 0,0 1.03,-4.13 -2.32,-7.84 -3.36,-3.7 -8.61,-2.93 -11.11,-0.09 -2.5,2.84 -3.53,7.49 -0.17,10.76 3.01,2.93 8.18,2.15 8.18,2.15 z"
     id="path20" /><path
     style="fill:#fcc318"
     d="m 52.515031,50.801683 c -3.98,3.76 -5.17,11.11 -0.6,15.41 4.56,4.31 11.86,3.89 15.39,0.7 3.53,-3.19 4.85,-9.22 1.4,-14.56 -3.44,-5.34 -11.54,-5.94 -16.19,-1.55 z"
     id="path21" /></g>&#10;</svg>
