<?xml version="1.0" encoding="UTF-8" standalone="no"?>
<!-- Generator: Adobe Illustrator 25.2.3, SVG Export Plug-In . SVG Version: 6.00 Build 0)  -->

<svg
   version="1.1"
   id="Layer_2"
   x="0px"
   y="0px"
   viewBox="0 0 200 200"
   xml:space="preserve"
   sodipodi:docname="emoji_rosette_android.svg"
   width="200"
   height="200"
   inkscape:version="1.3 (0e150ed6c4, 2023-07-21)"
   xmlns:inkscape="http://www.inkscape.org/namespaces/inkscape"
   xmlns:sodipodi="http://sodipodi.sourceforge.net/DTD/sodipodi-0.dtd"
   xmlns="http://www.w3.org/2000/svg"
   xmlns:svg="http://www.w3.org/2000/svg"><defs
   id="defs21"><clipPath
     id="clip0_446_1914"><rect
       width="906.232"
       height="527.777"
       fill="white"
       transform="translate(404.927 522.569)"
       id="rect4" /></clipPath></defs><sodipodi:namedview
   id="namedview21"
   pagecolor="#ffffff"
   bordercolor="#000000"
   borderopacity="0.25"
   inkscape:showpageshadow="2"
   inkscape:pageopacity="0.0"
   inkscape:pagecheckerboard="0"
   inkscape:deskcolor="#d1d1d1"
   inkscape:zoom="2.603313"
   inkscape:cx="192.44709"
   inkscape:cy="144.81547"
   inkscape:window-width="1452"
   inkscape:window-height="1212"
   inkscape:window-x="26"
   inkscape:window-y="23"
   inkscape:window-maximized="0"
   inkscape:current-layer="Layer_2" />&#10;&#10;&#10;&#10;&#10;&#10;&#10;&#10;&#10;&#10;&#10;&#10;&#10;&#10;&#10;&#10;&#10;&#10;&#10;&#10;&#10;&#10;&#10;<g
   clip-path="url(#clip0_446_1914)"
   id="g4"
   transform="matrix(0.22071054,0,0,0.22071054,-89.371379,-31.822425)"
   style="fill:none"><path
     d="m 1308.55,1030.38 c -0.28,-1.86 -0.57,-3.69 -0.88,-5.53 -1.88,-11.37 -4.19,-22.62 -6.91,-33.705 -4.75,-19.373 -10.73,-38.283 -17.86,-56.595 -6.03,-15.508 -12.9,-30.595 -20.51,-45.219 -9.81,-18.776 -20.87,-36.802 -33.08,-53.944 -14.97,-21.008 -31.68,-40.69 -49.94,-58.826 -7.66,-7.621 -15.59,-14.977 -23.78,-22.024 -17.73,-15.308 -36.67,-29.247 -56.63,-41.706 0.17,-0.287 0.33,-0.596 0.51,-0.884 9.14,-15.794 18.3,-31.566 27.44,-47.361 8.94,-15.419 17.88,-30.838 26.83,-46.257 6.42,-11.067 12.85,-22.156 19.25,-33.223 1.52,-2.629 2.71,-5.346 3.62,-8.129 2.49,-7.754 2.61,-15.905 0.6,-23.482 -0.51,-1.878 -1.13,-3.711 -1.88,-5.501 -0.75,-1.789 -1.63,-3.534 -2.63,-5.213 -3.42,-5.743 -8.3,-10.736 -14.44,-14.38 -5.43,-3.226 -11.5,-5.147 -17.73,-5.7 -2.6,-0.221 -5.23,-0.199 -7.84,0.067 -2.16,0.22 -4.3,0.618 -6.42,1.17 -7.57,2.011 -14.59,6.163 -20.07,12.172 -1.96,2.165 -3.73,4.551 -5.25,7.179 -6.43,11.067 -12.85,22.157 -19.26,33.224 l -26.82,46.257 c -9.14,15.794 -18.31,31.566 -27.45,47.361 -0.99,1.723 -2.01,3.446 -3,5.191 -1.39,-0.552 -2.76,-1.105 -4.15,-1.635 -50.408,-19.218 -105.097,-29.733 -162.26,-29.733 -1.567,0 -3.113,0 -4.681,0.022 -50.825,0.508 -99.664,9.344 -145.213,25.205 -5.277,1.833 -10.488,3.777 -15.654,5.81 -0.927,-1.613 -1.877,-3.226 -2.804,-4.838 -9.141,-15.795 -18.304,-31.567 -27.444,-47.361 -8.942,-15.419 -17.884,-30.838 -26.826,-46.257 -6.425,-11.067 -12.85,-22.156 -19.253,-33.224 -1.524,-2.628 -3.29,-5.014 -5.255,-7.179 -5.476,-6.008 -12.497,-10.161 -20.07,-12.172 -2.119,-0.552 -4.261,-0.949 -6.425,-1.17 -2.605,-0.265 -5.233,-0.288 -7.838,-0.067 -6.226,0.531 -12.298,2.452 -17.729,5.7 -6.138,3.644 -10.996,8.637 -14.44,14.38 -0.994,1.679 -1.877,3.424 -2.627,5.214 -0.751,1.789 -1.391,3.622 -1.877,5.5 -2.009,7.577 -1.899,15.728 0.596,23.482 0.905,2.783 2.098,5.5 3.621,8.129 6.425,11.067 12.85,22.156 19.253,33.224 8.942,15.418 17.884,30.837 26.826,46.256 9.141,15.795 18.303,31.567 27.444,47.361 0.066,0.133 0.155,0.266 0.221,0.398 -18.436,11.465 -35.989,24.167 -52.548,38.061 -9.914,8.328 -19.474,17.054 -28.637,26.177 -18.237,18.136 -34.951,37.819 -49.942,58.826 -12.232,17.142 -23.294,35.146 -33.075,53.944 -7.617,14.624 -14.483,29.712 -20.511,45.219 -7.132,18.313 -13.115,37.222 -17.862,56.595 -2.716,11.091 -5.012,22.311 -6.911,33.711 -0.309,1.83 -0.596,3.69 -0.883,5.52 -1.015,6.61 -1.877,13.25 -2.605,19.95 h 906.229 c -0.73,-6.7 -1.59,-13.34 -2.6,-19.95 z"
     fill="#34a853"
     id="path2-9" /><path
     d="m 1093.7,925.046 c 18.13,-12.071 20.77,-39.995 5.89,-62.371 -14.88,-22.376 -41.65,-30.729 -59.78,-18.659 -18.13,12.071 -20.76,39.995 -5.88,62.371 14.88,22.376 41.64,30.73 59.77,18.659 z"
     fill="#202124"
     id="path3-3" /><path
     d="m 682.814,906.465 c 14.881,-22.376 12.247,-50.3 -5.884,-62.371 -18.132,-12.071 -44.894,-3.717 -59.775,18.659 -14.881,22.376 -12.247,50.3 5.884,62.371 18.131,12.07 44.893,3.716 59.775,-18.659 z"
     fill="#202124"
     id="path4-6" /></g><g
   id="g1"
   transform="matrix(0.97316073,0,0,0.97316073,40.684309,-0.12078787)"><polygon
     style="fill:#c54c0f"
     points="93.54,19.59 34.47,21.96 18.31,78.01 63.58,117.67 113.59,78.44 "
     id="polygon1"
     transform="translate(-3.0849689,-4.1983172)" /><path
     style="fill:#a62714"
     d="m 86.245031,11.581683 c -0.88,0.98 -2.74,13.61 -1.61,14.52 1.13,0.91 14.28,-3.43 14.96,-4.68 0.679999,-1.24 0.34,-12.6700002 -0.79,-13.9100002 -1.14,-1.25 -11.54,2.9400002 -12.56,4.0700002 z"
     id="path1" /><path
     style="fill:#a62714"
     d="m 23.235031,7.3916828 c -1.51,1.16 -1.58,14.1400002 -0.68,14.9300002 0.9,0.79 12.56,5.77 14.26,4.08 1.7,-1.69 0.11,-14.37 -0.68,-15.27 -0.79,-0.91 -11.48,-4.8200002 -12.9,-3.7400002 z"
     id="path2" /><path
     style="fill:#a62714"
     d="m 0.07503115,80.011683 c 0.61,1.29 11.14999985,3.44 13.20999985,2.6 3.05,-1.24 9.54,-10.13 9.2,-11.37 -0.34,-1.24 -14.0599999,-3.56 -15.1899999,-2.77 -1.13,0.79 -8.08999995,9.7 -7.21999995,11.54 z"
     id="path3" /><path
     style="fill:#a62714"
     d="m 61.245031,99.501683 c -1.13,-0.09 -7.36,11.079997 -7.36,12.779997 0,1.7 6.57,9.67 7.58,9.74 1.18,0.08 8.13,-8.39 7.8,-9.74 -0.35,-1.36 -6.55,-12.669997 -8.02,-12.779997 z"
     id="path4" /><path
     style="fill:#a62714"
     d="m 99.705031,71.761683 c -0.4,1.2 6.789999,10.63 8.369999,10.97 1.58,0.34 13.23,-1.7 13.8,-4.07 0.57,-2.37 -7.69,-10.86 -9.05,-11.54 -1.36,-0.68 -12.56,2.94 -13.119999,4.64 z"
     id="path5" /><path
     style="fill:#fe6111"
     d="m 55.495031,53.371683 14.46,-2.2 c 0,0 1.34,-10.89 5.83,-16.77 4.49,-5.88 11.3,-10.53 11.3,-18.97 0,-8.4400002 -5.58,-15.18000025 -11.66,-15.42000025 -6.08,-0.24 -9.97,3.30000005 -14.95,3.06000005 -4.98,-0.24 -9.72,-2.94000005 -16.28,-1.96 -6.56,0.98 -12.15,10.4000002 -9.24,18.3600002 2.92,7.96 10.76,12.21 13.25,17.38 1.46,3.03 4.5,16.16 4.5,16.16 z"
     id="path6" /><path
     style="fill:#fe6111"
     d="m 67.105031,47.991683 c 0,0 9.85,-3.12 14.53,-12.61 4.68,-9.49 7.09,-13.69 14.05,-15.13 6.959999,-1.44 12.729999,1.8 15.969999,5.89 3.24,4.08 1.56,15.13 2.28,17.54 0.72,2.41 7.69,8.53 7.09,14.29 -0.6,5.76 -6.73,13.69 -14.53,13.33 -7.809999,-0.36 -12.489999,-4.67 -17.649999,-6.11 -5.16,-1.44 -13.64,-0.32 -13.64,-0.32 l -11.46,-12.55 z"
     id="path7" /><path
     style="fill:#fe6111"
     d="m 54.495031,48.711683 c 0,0 -9.05,-6.83 -11.98,-9.84 -4.11,-4.22 -7.04,-17.21 -18.52,-19.1 -9.24,-1.52 -14.2899999,4.56 -15.6099999,10.21 -1.32,5.65 -0.24,9.61 -0.72,11.41 -0.48,1.8 -6.01,9.25 -6.84999995,14.05 -0.84,4.8 1.43999995,14.41 10.20999985,15.85 8.77,1.44 12.49,-2.64 15.13,-4.2 2.64,-1.56 7.45,-3.96 11.41,-3.6 3.96,0.36 9.73,-0.24 9.73,-0.24 z"
     id="path8" /><path
     style="fill:#fe6111"
     d="m 44.765031,65.171683 c 0,0 -7.17,3.62 -11.57,5.21 -5.09,1.84 -12.93,0.2 -18.7,7.52 -5.7699999,7.32 -5.6399999,15.49 -0.72,20.18 4.92,4.689997 10.93,3.959997 13.81,6.729997 2.88,2.76 7.69,11.17 13.57,12.25 5.88,1.08 15.01,-1.44 16.81,-10.09 1.8,-8.649997 -1.32,-16.209997 0.24,-21.499997 1.56,-5.28 5.84,-10.87 5.84,-10.87 z"
     id="path9" /><path
     style="fill:#fe6111"
     d="m 75.425031,61.931683 -16.12,15.01 c 0,0 3.72,6.25 4.44,10.57 0.72,4.32 -2.88,20.539997 4.2,26.299997 7.09,5.76 15.23,4.08 19.43,-1.57 4.2,-5.64 6.18,-8.03 8.46,-9.83 2.28,-1.8 14.029999,-6.479997 14.989999,-12.489997 0.96,-6.01 -0.49,-9.02 -6.25,-13.47 -5.759999,-4.44 -12.969999,-3.24 -18.139999,-5.4 -3.39,-1.42 -11.01,-9.12 -11.01,-9.12 z"
     id="path10" /><path
     style="fill:#ffa624"
     d="m 63.385031,49.911683 c 0,0 8.04,-12 8.17,-19.94 0.12,-7.69 -4.8,-12.13 -10.45,-11.89 -6.61,0.28 -10.45,6.01 -9.49,13.33 0.96,7.32 7.9,19.36 7.9,19.36 z"
     id="path11" /><path
     style="fill:#ffa624"
     d="m 67.825031,54.481683 c 0,0 9.85,-9.97 16.45,-13.33 6.61,-3.36 13.09,-1.08 15.49,5.52 2.399999,6.6 -3.48,12.73 -9.61,13.45 -6.13,0.72 -20.9,0.48 -20.9,0.48 z"
     id="path12" /><path
     style="fill:#ffa624"
     d="m 50.655031,53.761683 c 0,0 -6.73,-9.73 -14.05,-13.69 -7.32,-3.96 -14.89,-1.56 -16.33,4.56 -1.44,6.13 1.65,12.4 10.55,13.95 8.28,1.44 19.35,-2.78 19.35,-2.78 z"
     id="path13" /><path
     style="fill:#ffa624"
     d="m 56.245031,65.111683 c 0,0 -11,3.42 -14,5.1 -3,1.68 -9.67,5.61 -9.91,12.94 -0.24,7.33 4.44,10.46 11.04,9.74 6.61,-0.72 10.4,-8.75 11.12,-12.96 0.72,-4.19 1.75,-14.82 1.75,-14.82 z"
     id="path14" /><path
     style="fill:#ffa624"
     d="m 63.625031,66.611683 c 0,0 0.04,12.39 2.84,18.55 3.01,6.63 10.98,10.77 16.37,6.91 5.04,-3.6 4.68,-11.89 -0.72,-17.78 -5.4,-5.89 -16.57,-9.37 -16.57,-9.37 z"
     id="path15" /><path
     style="fill:#fffeff"
     d="m 61.045031,48.941683 c 0,0 -0.78,-4.34 1.8,-7.24 3.06,-3.45 7.3,-2.92 10.37,-0.88 3.06,2.03 4.6,6.63 1.44,10.51 -2.67,3.29 -6.51,3.16 -6.51,3.16 z"
     id="path16" /><path
     style="fill:#fffeff"
     d="m 68.535031,56.741683 c 0,0 2.24,-2.15 6.2,-1.64 3.84,0.5 7.34,4.29 6.2,8.78 -1.21,4.74 -4.31,7.23 -9.56,5.68 -5.12,-1.51 -5.6,-5.94 -5.6,-5.94 z"
     id="path17" /><path
     style="fill:#fffeff"
     d="m 54.765031,66.251683 c 0,0 -3.44,3.01 -2.67,8.01 0.68,4.37 3.44,6.37 7.92,6.63 4.48,0.26 7.92,-3.53 7.58,-8.01 -0.34,-4.48 -5.34,-8.7 -5.34,-8.7 z"
     id="path18" /><path
     style="fill:#fffeff"
     d="m 50.795031,56.481683 c 0,0 -5.09,-2.52 -8.61,-0.43 -3.62,2.15 -4.48,7.06 -3.27,9.73 1.21,2.67 3.47,5.29 7.92,4.56 4.74,-0.77 6.97,-5.77 6.97,-5.77 z"
     id="path19" /><path
     style="fill:#fffeff"
     d="m 59.065031,49.591683 c 0,0 1.03,-4.13 -2.32,-7.84 -3.36,-3.7 -8.61,-2.93 -11.11,-0.09 -2.5,2.84 -3.53,7.49 -0.17,10.76 3.01,2.93 8.18,2.15 8.18,2.15 z"
     id="path20" /><path
     style="fill:#fcc318"
     d="m 52.515031,50.801683 c -3.98,3.76 -5.17,11.11 -0.6,15.41 4.56,4.31 11.86,3.89 15.39,0.7 3.53,-3.19 4.85,-9.22 1.4,-14.56 -3.44,-5.34 -11.54,-5.94 -16.19,-1.55 z"
     id="path21" /></g></svg>
