<?xml version="1.0" encoding="UTF-8" standalone="no"?>
<!-- Created with Inkscape (http://www.inkscape.org/) -->

<svg
   version="1.1"
   id="svg1"
   width="200"
   height="200"
   viewBox="0 0 200 200"
   sodipodi:docname="gradle.svg"
   inkscape:version="1.3 (0e150ed6c4, 2023-07-21)"
   xmlns:inkscape="http://www.inkscape.org/namespaces/inkscape"
   xmlns:sodipodi="http://sodipodi.sourceforge.net/DTD/sodipodi-0.dtd"
   xmlns="http://www.w3.org/2000/svg"
   xmlns:svg="http://www.w3.org/2000/svg">
  <defs
     id="defs1" />
  <sodipodi:namedview
     id="namedview1"
     pagecolor="#ffffff"
     bordercolor="#000000"
     borderopacity="0.25"
     inkscape:showpageshadow="2"
     inkscape:pageopacity="0.0"
     inkscape:pagecheckerboard="0"
     inkscape:deskcolor="#d1d1d1"
     inkscape:zoom="1.8499572"
     inkscape:cx="27.297929"
     inkscape:cy="46.217287"
     inkscape:window-width="1504"
     inkscape:window-height="1289"
     inkscape:window-x="26"
     inkscape:window-y="23"
     inkscape:window-maximized="0"
     inkscape:current-layer="g1" />
  <g
     inkscape:groupmode="layer"
     inkscape:label="Image"
     id="g1"
     transform="translate(-70.061118,-16.311265)">
    <path
       style="fill:#02303a;stroke-width:1.73103"
       d="m 72.815897,187.9928 c -0.609526,-0.95207 -1.482048,-4.84689 -1.938937,-8.65517 -3.151413,-26.26773 2.893453,-50.58691 16.983017,-68.32457 3.942388,-4.96316 13.208533,-13.611005 14.584163,-13.611005 0.2953,0 3.53493,5.177555 7.19919,11.505655 3.66425,6.32812 7.84633,12.54527 9.29349,13.8159 5.34053,4.68906 12.72921,4.94734 20.25003,0.7079 6.73655,-3.79733 17.02962,-10.9971 21.12319,-14.77518 3.26613,-3.01442 3.61244,-3.6244 2.85799,-5.0341 -0.47218,-0.88224 -1.52799,-1.60408 -2.34628,-1.60408 -0.8183,0 -4.79721,2.58696 -8.84205,5.74879 -4.04485,3.16186 -9.85453,7.22978 -12.91043,9.03986 -4.8047,2.84594 -6.15242,3.29104 -9.9651,3.29104 -3.88058,0 -4.68148,-0.2766 -6.68302,-2.30806 -2.86393,-2.90672 -16.08642,-25.682904 -16.70473,-28.774459 -0.31298,-1.564889 0.0838,-3.428485 1.2373,-5.811286 1.48337,-3.064223 2.39417,-3.838566 7.20459,-6.12514 13.95008,-6.630982 30.66327,-10.135406 44.74331,-9.381749 14.92509,0.798872 24.52185,3.787881 47.3149,14.7367 18.40247,8.839763 23.77833,10.702614 29.34293,10.167933 8.33236,-0.800638 15.2747,-8.101685 15.89807,-16.719495 0.40821,-5.643514 -0.81868,-9.38696 -4.36607,-13.321684 -5.51709,-6.119514 -14.01449,-7.719404 -21.3185,-4.013833 -2.08164,1.056086 -4.32038,1.921602 -4.97501,1.923368 -1.80777,0.0052 -7.07823,-5.749315 -6.76339,-7.38416 0.43969,-2.283094 7.4431,-6.996816 13.09617,-8.814521 6.54478,-2.104429 14.89215,-1.800797 21.64385,0.787288 12.02325,4.608784 21.31914,19.390484 21.28646,33.848263 -0.0395,17.487294 -10.79152,34.886545 -32.38178,52.401225 -4.06413,3.29696 -8.78535,7.58042 -10.49156,9.51878 -6.8129,7.73985 -11.85748,22.32325 -13.26323,38.34275 -0.40634,4.63034 -1.13751,8.89924 -1.62485,9.48644 -0.65101,0.78442 -2.99242,1.06763 -8.82638,1.06763 -7.33316,0 -8.03191,-0.13069 -9.13797,-1.70988 -0.65871,-0.94043 -1.19765,-2.42713 -1.19765,-3.30376 0,-3.29847 -4.82941,-9.87059 -9.15076,-12.4529 -12.05779,-7.2053 -26.398,-1.39308 -30.48045,12.35401 -0.63224,2.12905 -1.58111,4.14502 -2.10859,4.47998 -1.63854,1.04049 -16.44883,0.75804 -17.25819,-0.32914 -0.39376,-0.52892 -1.29336,-2.86581 -1.99912,-5.1931 -5.035,-16.60313 -27.36302,-19.61565 -36.665639,-4.94696 -1.204268,1.89894 -2.430319,4.74092 -2.72456,6.3155 -0.859936,4.60183 -1.263568,4.78625 -10.475281,4.78625 -7.818919,0 -8.421488,-0.11026 -9.459123,-1.73103 z M 208.3707,108.01907 c 1.46284,-1.46285 1.10741,-5.81672 -0.61549,-7.53962 -2.29085,-2.290848 -6.40899,-2.051602 -8.40698,0.48843 -0.877,1.11492 -1.59453,2.42814 -1.59453,2.91828 0,0.85175 7.20193,4.91172 8.88597,5.00931 0.4443,0.0258 1.22327,-0.36864 1.73103,-0.8764 z"
       id="path1"
       sodipodi:nodetypes="ssssssssssssssssssssssscssssssssssssssssssssssssss" />
  </g>
</svg>
