<?xml version="1.0" encoding="UTF-8" standalone="no"?>
<!-- Created with Inkscape (http://www.inkscape.org/) -->

<svg
   width="80mm"
   height="68.833954mm"
   viewBox="0 0 80 68.833955"
   version="1.1"
   id="svg1"
   xmlns="http://www.w3.org/2000/svg"
   xmlns:svg="http://www.w3.org/2000/svg">
  <defs
     id="defs1">
    <clipPath
       clipPathUnits="userSpaceOnUse"
       id="clipPath13">
      <path
         id="path13"
         style="stroke-width:0.1;stroke-linecap:square;paint-order:markers fill stroke;stop-color:#000000"
         d="m -880.82767,-187.29769 h 1640.84 v 73.28155 h -1640.84 z" />
    </clipPath>
    <clipPath
       clipPathUnits="userSpaceOnUse"
       id="clipPath9">
      <path
         id="path9"
         style="stroke-width:0.1;stroke-linecap:square;paint-order:markers fill stroke;stop-color:#000000"
         d="m -880.82767,-187.29769 h 1640.84 v 73.28155 h -1640.84 z" />
    </clipPath>
    <clipPath
       clipPathUnits="userSpaceOnUse"
       id="clipPath52">
      <path
         id="path52"
         style="stroke-width:0.1;stroke-linecap:square;paint-order:markers fill stroke;stop-color:#000000"
         d="m -880.82767,-187.29769 h 1640.84 v 73.28155 h -1640.84 z" />
    </clipPath>
  </defs>
  <g
     id="layer1"
     transform="translate(-81.867281,-119.45223)">
    <g
       id="g6"
       transform="matrix(9.3261063,-1.5347692,1.5347692,9.3261063,-747.35272,-667.82605)">
      <path
         d="m 74.650527,98.970317 c -0.07338,0.378178 -0.141111,0.739422 -0.214489,1.095033 l -0.705555,0.10161 c 0.231422,-0.412066 0.485422,-0.762021 0.688621,-1.185354 l -0.716843,-0.44593 c -0.383822,0.688621 -0.829733,1.332094 -1.174044,2.048954 0.04516,0.0452 0.06209,0.0847 0.09031,0.11854 0.107244,0.1524 0.225778,0.28222 0.327378,0.43462 0.07902,0.10724 0.158044,0.12418 0.265288,0.1016 0.214489,-0.0452 0.434622,-0.0903 0.654755,-0.12982 0.124178,-0.0226 0.242711,-0.0339 0.372533,-0.0565 -0.03951,0.3556 -0.197555,0.93698 -0.242711,1.29258 l 0.869244,0.18627 c -0.01693,-0.28787 0.468489,-2.754516 0.570089,-3.307673 z m 0.366893,3.723953 c 0.254,0.0903 0.496711,0.18062 0.756355,0.27657 0.107244,-0.39511 0.214489,-0.76764 0.321733,-1.15711 0.609043,0.32539 1.20791,0.59267 1.823154,0.8636 0.112889,-0.23142 0.220133,-0.4572 0.333022,-0.68862 -0.491066,-0.22578 -1.365644,-0.65453 -1.834132,-0.93111 0.711199,-0.51364 1.942413,-1.676611 2.45502,-2.379383 -0.158044,-0.214489 -0.34431,-0.389466 -0.530577,-0.570089 -0.525329,0.736247 -1.247421,1.505656 -1.907821,1.974172 0.129822,-0.496739 0.259645,-1.500039 0.383822,-1.979816 -0.259644,-0.08467 -0.513644,-0.169333 -0.773288,-0.259644 -0.3048,1.281288 -0.688622,3.58143 -1.027288,4.85143 z m 4.222039,-0.64347 c 0.237066,-1.016 0.428977,-3.096006 0.671688,-4.224894 -0.254,-0.06773 -0.508,-0.141111 -0.750711,-0.208844 -0.08467,0.169333 -0.677332,4.095068 -0.660399,4.241828 0.214489,0.096 0.462844,0.12418 0.739422,0.19191 z m -0.479778,0.97084 c 0.231422,0 0.417689,-0.18626 0.412044,-0.41768 0,-0.2032 -0.174977,-0.37254 -0.395111,-0.36689 -0.237066,0 -0.423333,0.18062 -0.417688,0.4064 0,0.22013 0.174978,0.38382 0.400755,0.37817 z"
         id="path5"
         style="font-size:5.64444px;font-family:'Virus Killer';-inkscape-font-specification:'Virus Killer';letter-spacing:0px;fill:#9fffb4;fill-opacity:1;stroke:#9fffb4;stroke-width:0.343958;stroke-linecap:butt;stroke-linejoin:bevel;stroke-miterlimit:64.6;stroke-dasharray:none;stroke-opacity:1"
         aria-label="JsonPath4K!" />
      <path
         d="m 74.794544,99.196733 c -0.07338,0.378178 -0.141111,0.739422 -0.214489,1.095017 l -0.705555,0.1016 c 0.231422,-0.41204 0.485422,-0.761995 0.688621,-1.185328 l -0.716843,-0.44593 c -0.383822,0.688621 -0.829733,1.332088 -1.174044,2.048928 0.04516,0.0452 0.06209,0.0847 0.09031,0.11854 0.107244,0.1524 0.225778,0.28222 0.327378,0.43462 0.07902,0.10724 0.158044,0.12418 0.265288,0.1016 0.214489,-0.0452 0.434622,-0.0903 0.654755,-0.12982 0.124178,-0.0226 0.242711,-0.0339 0.372533,-0.0565 -0.03951,0.3556 -0.197555,0.93698 -0.242711,1.29258 l 0.869244,0.18627 c -0.01693,-0.28787 0.468489,-2.75449 0.570089,-3.307647 z m 0.366893,3.723927 c 0.254,0.0903 0.496711,0.18062 0.756355,0.27657 0.107244,-0.39511 0.214489,-0.76764 0.321733,-1.15711 0.609043,0.32539 1.20791,0.59267 1.823154,0.8636 0.112889,-0.23142 0.220133,-0.4572 0.333022,-0.68862 -0.491066,-0.22578 -1.365644,-0.65453 -1.834132,-0.93111 0.711199,-0.51364 1.942413,-1.676585 2.45502,-2.379357 -0.158044,-0.214489 -0.34431,-0.389466 -0.530577,-0.570089 -0.525329,0.736247 -1.247421,1.505656 -1.907821,1.974146 0.129822,-0.496713 0.259645,-1.500013 0.383822,-1.97979 -0.259644,-0.08467 -0.513644,-0.169333 -0.773288,-0.259644 -0.3048,1.281288 -0.688622,3.581404 -1.027288,4.851404 z m 4.222039,-0.64347 c 0.237066,-1.016 0.428977,-3.09598 0.671688,-4.224868 -0.254,-0.06773 -0.508,-0.141111 -0.750711,-0.208844 -0.08467,0.169333 -0.677332,4.095042 -0.660399,4.241802 0.214489,0.096 0.462844,0.12418 0.739422,0.19191 z m -0.479778,0.97084 c 0.231422,0 0.417689,-0.18626 0.412044,-0.41768 0,-0.2032 -0.174977,-0.37254 -0.395111,-0.36689 -0.237066,0 -0.423333,0.18062 -0.417688,0.4064 0,0.22013 0.174978,0.38382 0.400755,0.37817 z"
         id="path2"
         style="font-size:5.64444px;font-family:'Virus Killer';-inkscape-font-specification:'Virus Killer';letter-spacing:0px;fill:#000000;fill-opacity:1;stroke:#000000;stroke-width:0.343958;stroke-linecap:butt;stroke-linejoin:bevel;stroke-miterlimit:64.6;stroke-dasharray:none;stroke-opacity:1"
         aria-label="JsonPath4K!" />
      <path
         d="m 74.903966,99.219943 c -0.07338,0.378178 -0.141111,0.739422 -0.214489,1.095017 l -0.705555,0.1016 c 0.231422,-0.41204 0.485422,-0.761995 0.688621,-1.185328 L 73.9557,98.785302 c -0.383822,0.688621 -0.829733,1.332088 -1.174044,2.048928 0.04516,0.0452 0.06209,0.0847 0.09031,0.11854 0.107244,0.1524 0.225778,0.28222 0.327378,0.43462 0.07902,0.10724 0.158044,0.12418 0.265288,0.1016 0.214489,-0.0452 0.434622,-0.0903 0.654755,-0.12982 0.124178,-0.0226 0.242711,-0.0339 0.372533,-0.0565 -0.03951,0.3556 -0.197555,0.93698 -0.242711,1.29258 l 0.869244,0.18627 c -0.01693,-0.28787 0.468489,-2.75449 0.570089,-3.307647 z m 0.366893,3.723927 c 0.254,0.0903 0.496711,0.18062 0.756355,0.27657 0.107244,-0.39511 0.214489,-0.76764 0.321733,-1.15711 0.609043,0.32539 1.20791,0.59267 1.823154,0.8636 0.112889,-0.23142 0.220133,-0.4572 0.333022,-0.68862 -0.491066,-0.22578 -1.365644,-0.65453 -1.834132,-0.93111 0.711199,-0.51364 1.942413,-1.676585 2.45502,-2.379357 -0.158044,-0.214489 -0.34431,-0.389466 -0.530577,-0.570089 -0.525329,0.736247 -1.247421,1.505656 -1.907821,1.974146 0.129822,-0.496713 0.259645,-1.500013 0.383822,-1.97979 -0.259644,-0.08467 -0.513644,-0.169333 -0.773288,-0.259644 -0.3048,1.281288 -0.688622,3.581404 -1.027288,4.851404 z m 4.222039,-0.64347 c 0.237066,-1.016 0.428977,-3.09598 0.671688,-4.224868 -0.254,-0.06773 -0.508,-0.141111 -0.750711,-0.208844 -0.08467,0.169333 -0.677332,4.095042 -0.660399,4.241802 0.214489,0.096 0.462844,0.12418 0.739422,0.19191 z m -0.479778,0.97084 c 0.231422,0 0.417689,-0.18626 0.412044,-0.41768 0,-0.2032 -0.174977,-0.37254 -0.395111,-0.36689 -0.237066,0 -0.423333,0.18062 -0.417688,0.4064 0,0.22013 0.174978,0.38382 0.400755,0.37817 z"
         id="text2"
         style="font-size:5.64444px;font-family:'Virus Killer';-inkscape-font-specification:'Virus Killer';letter-spacing:0px;fill:#fff146;fill-opacity:1;stroke-width:0.265112;stroke-linecap:square;stroke-miterlimit:64.6"
         aria-label="JsonPath4K!" />
    </g>
  </g>
</svg>
