<svg xmlns="http://www.w3.org/2000/svg" viewBox="0 0 11.525 8.89"><g fill="#8a2be2" font-family="VALORANT" font-size="12.7" letter-spacing="0" text-anchor="middle"><path d="m58.308 205.704 3.187-4.153a.517.517 0 0 1 .42-.203h1.612c.051 0 .085.021.102.063.025.034.025.072 0 .115l-3.277 4.267 3.264 4.267c.034.042.038.085.013.127-.017.034-.05.05-.102.05h-1.613a.517.517 0 0 1-.419-.202l-3.187-4.14c-.043-.068-.043-.132 0-.191zm-6.153 0 3.187-4.153a.517.517 0 0 1 .42-.203h1.612c.051 0 .085.021.102.063.025.034.025.072 0 .115l-3.277 4.267 3.264 4.267c.034.042.038.085.013.127-.017.034-.05.05-.102.05h-1.613a.517.517 0 0 1-.419-.202l-3.187-4.14c-.043-.068-.043-.132 0-.191z" style="-inkscape-font-specification:VALORANT;text-align:center" transform="translate(-52.123 -201.348)"/><path d="m55.231 205.704 3.188-4.153a.517.517 0 0 1 .419-.203h1.613c.05 0 .084.021.101.063.026.034.026.072 0 .115l-3.276 4.267 3.264 4.267c.034.042.038.085.012.127-.017.034-.05.05-.101.05h-1.613a.517.517 0 0 1-.42-.202l-3.187-4.14c-.042-.068-.042-.132 0-.191z" style="-inkscape-font-specification:VALORANT;text-align:center" transform="translate(-52.123 -201.348)"/></g></svg>