<svg xmlns="http://www.w3.org/2000/svg" viewBox="0 0 8.03 9.5"><g fill="#8a2be2" font-family="VALORANT" font-size="12.7" text-anchor="middle"><path d="M59.64 222.13q0-.98.36-1.82.37-.84.98-1.46.62-.62 1.46-.96.83-.36 1.8-.35 1.03.02 1.9.42.87.4 1.5 1.12.04.05.03.11 0 .07-.05.1l-1 .86q-.06.03-.12.03t-.1-.06q-.42-.48-1-.76-.56-.3-1.22-.28-.6.01-1.13.27-.54.24-.93.67-.4.42-.62.98-.23.56-.23 1.2 0 .63.24 1.18.24.56.65.98.4.42.94.66.53.23 1.14.23.63-.01 1.2-.3.55-.27.96-.75.04-.05.1-.05.06-.02.11.03l1 .86q.06.03.06.1.01.06-.03.11-.64.73-1.53 1.14-.9.41-1.95.4-.95 0-1.79-.36-.82-.37-1.43-.99-.61-.63-.95-1.48-.35-.85-.35-1.83z" style="-inkscape-font-specification:VALORANT;text-align:center" transform="translate(-59.64 -217.42)"/><path d="M66.21 221.35h1.3c.1 0 .16.06.16.17v1.38c0 .11-.05.17-.16.17h-1.3c-.1 0-.16-.06-.16-.17v-1.38c0-.11.05-.17.16-.17z" letter-spacing="-3.12" style="-inkscape-font-specification:VALORANT;text-align:center" transform="translate(-59.64 -217.42)"/></g></svg>