<svg xmlns="http://www.w3.org/2000/svg" viewBox="0 0 15.007 8.89"><path fill="#8a2be2" d="M106.044 152.646c.034.033.038.072.013.114-.025.042-.06.063-.102.063h-1.612a.517.517 0 0 1-.42-.203l-6.527-8.509c-.034-.034-.038-.072-.013-.114.025-.042.06-.064.102-.064h1.612c.17 0 .31.068.42.204zm6.3 0c.034.033.038.072.013.114-.025.042-.06.063-.102.063h-1.613a.517.517 0 0 1-.419-.203l-6.527-8.509c-.034-.034-.039-.072-.013-.114.025-.042.06-.064.101-.064h1.613c.17 0 .31.068.42.204zm-3.15 0c.034.033.038.072.013.114-.025.042-.06.063-.102.063h-1.612a.517.517 0 0 1-.42-.203l-6.527-8.509c-.034-.034-.038-.072-.013-.114.025-.042.06-.064.102-.064h1.612c.17 0 .31.068.42.204z" font-family="VALORANT" font-size="12.7" style="-inkscape-font-specification:VALORANT;text-align:center" text-anchor="middle" transform="translate(-97.367 -143.933)"/></svg>