<?xml version="1.0" encoding="UTF-8" standalone="no"?>
<!-- Created with Inkscape (http://www.inkscape.org/) -->

<svg
   width="42.817036mm"
   height="80mm"
   viewBox="0 0 42.817035 80"
   version="1.1"
   id="svg1"
   inkscape:version="1.3.2 (091e20e, 2023-11-25)"
   sodipodi:docname="backdrop.svg"
   inkscape:export-filename="multibase.png"
   inkscape:export-xdpi="300"
   inkscape:export-ydpi="300"
   xmlns:inkscape="http://www.inkscape.org/namespaces/inkscape"
   xmlns:sodipodi="http://sodipodi.sourceforge.net/DTD/sodipodi-0.dtd"
   xmlns:xlink="http://www.w3.org/1999/xlink"
   xmlns="http://www.w3.org/2000/svg"
   xmlns:svg="http://www.w3.org/2000/svg">
  <sodipodi:namedview
     id="namedview1"
     pagecolor="#ffffff"
     bordercolor="#000000"
     borderopacity="0.25"
     inkscape:showpageshadow="2"
     inkscape:pageopacity="0.0"
     inkscape:pagecheckerboard="0"
     inkscape:deskcolor="#d1d1d1"
     inkscape:document-units="mm"
     showguides="true"
     inkscape:zoom="17.977188"
     inkscape:cx="21.05446"
     inkscape:cy="21.916664"
     inkscape:window-width="3360"
     inkscape:window-height="1837"
     inkscape:window-x="0"
     inkscape:window-y="25"
     inkscape:window-maximized="0"
     inkscape:current-layer="layer1">
    <sodipodi:guide
       position="5.9893239,66.268607"
       orientation="0,-1"
       id="guide2"
       inkscape:locked="false" />
    <sodipodi:guide
       position="2.2974329,68.345957"
       orientation="1,0"
       id="guide6"
       inkscape:locked="false" />
    <sodipodi:guide
       position="-15.132512,67.713637"
       orientation="1,0"
       id="guide7"
       inkscape:locked="false" />
    <sodipodi:guide
       position="0.039689884,69.700347"
       orientation="1,0"
       id="guide8"
       inkscape:locked="false" />
    <sodipodi:guide
       position="-5.014265,69.880917"
       orientation="0,-1"
       id="guide9"
       inkscape:locked="false" />
  </sodipodi:namedview>
  <defs
     id="defs1">
    <linearGradient
       id="linearGradient9"
       inkscape:collect="always">
      <stop
         style="stop-color:#ff0000;stop-opacity:1;"
         offset="0"
         id="stop9" />
      <stop
         style="stop-color:#00ffd7;stop-opacity:1;"
         offset="0.21186441"
         id="stop11" />
      <stop
         style="stop-color:#ff00fb;stop-opacity:1;"
         offset="0.37500003"
         id="stop12" />
      <stop
         style="stop-color:#0059ff;stop-opacity:1;"
         offset="0.55508471"
         id="stop13" />
      <stop
         style="stop-color:#fff518;stop-opacity:1;"
         offset="0.83580506"
         id="stop14" />
      <stop
         style="stop-color:#1bff00;stop-opacity:1;"
         offset="1"
         id="stop10" />
    </linearGradient>
    <linearGradient
       inkscape:collect="always"
       xlink:href="#linearGradient9"
       id="linearGradient10"
       x1="81.813606"
       y1="109.4923"
       x2="81.858566"
       y2="113.10472"
       gradientUnits="userSpaceOnUse"
       gradientTransform="matrix(21.669616,0,0,21.669616,-1671.5645,-2262.3433)" />
    <linearGradient
       inkscape:collect="always"
       xlink:href="#linearGradient9"
       id="linearGradient14"
       gradientUnits="userSpaceOnUse"
       x1="65.738106"
       y1="113.10447"
       x2="102.7591"
       y2="113.10447"
       gradientTransform="matrix(21.669616,0,0,21.669616,-1671.5645,-2262.3433)" />
  </defs>
  <g
     inkscape:label="Layer 1"
     inkscape:groupmode="layer"
     id="layer1"
     transform="translate(-80.870616,-109.4526)">
    <path
       id="path14"
       style="font-size:5.64444px;font-family:Rahovets;-inkscape-font-specification:Rahovets;fill:url(#linearGradient14);stroke:#000000;stroke-width:1.72002;stroke-linejoin:bevel;stroke-dasharray:none;stroke-opacity:1"
       d="m 85.649967,110.31261 c -2.201633,0 -3.919341,1.7184 -3.919341,3.91938 v 0 c 0,2.20164 1.717751,3.9194 3.919341,3.9194 h 17.614603 c 1.10082,0 1.94853,0.85811 1.94853,1.95892 0,1.10083 -0.84771,1.94811 -1.94853,1.94811 H 87.598433 c -3.180124,0 -5.867807,2.69873 -5.867807,5.87896 v 7.81624 c 0,3.18001 2.687683,5.87896 5.867807,5.87896 H 118.9195 c 2.20163,0 3.90811,-1.71623 3.90811,-3.91917 v 0 c 0,-2.20163 -1.70648,-3.90811 -3.90811,-3.90811 h -17.61462 c -1.10082,0 -1.959586,-0.85812 -1.959586,-1.95894 0,-1.10081 0.858766,-1.95893 1.959586,-1.95893 h 15.65495 c 3.18013,0 5.86778,-2.68789 5.86778,-5.8677 v -7.8275 c 0,-3.18002 -2.68765,-5.87918 -5.86778,-5.87918 z m 7.827498,39.14746 c -6.482573,0 -11.746795,5.26443 -11.746795,11.7469 v 15.63896 c 0,6.48268 5.264222,11.74666 11.746795,11.74666 h 17.603385 c 6.48259,0 11.74679,-5.26398 11.74679,-11.74666 v -15.63896 c 0,-6.48247 -5.2642,-11.7469 -11.74679,-11.7469 z"
       sodipodi:nodetypes="cssssssssssssssssssssccsssssssss" />
    <path
       id="text2"
       style="font-size:5.64444px;font-family:Rahovets;-inkscape-font-specification:Rahovets;fill:url(#linearGradient10);stroke-width:10.8348;stroke-linejoin:bevel"
       d="m 85.649967,110.31261 c -2.201633,0 -3.919341,1.7184 -3.919341,3.91938 v 0 c 0,2.20164 1.717751,3.9194 3.919341,3.9194 h 17.614603 c 1.10082,0 1.94853,0.85811 1.94853,1.95892 0,1.10083 -0.84771,1.94811 -1.94853,1.94811 H 87.598433 c -3.180124,0 -5.867807,2.69873 -5.867807,5.87896 v 7.81624 c 0,3.18001 2.687683,5.87896 5.867807,5.87896 H 118.9195 c 2.20163,0 3.90811,-1.71623 3.90811,-3.91917 v 0 c 0,-2.20163 -1.70648,-3.90811 -3.90811,-3.90811 h -17.61462 c -1.10082,0 -1.959586,-0.85812 -1.959586,-1.95894 0,-1.10081 0.858766,-1.95893 1.959586,-1.95893 h 15.65495 c 3.18013,0 5.86778,-2.68789 5.86778,-5.8677 v -7.8275 c 0,-3.18002 -2.68765,-5.87918 -5.86778,-5.87918 z m 7.827498,39.14746 c -6.482573,0 -11.746795,5.26443 -11.746795,11.7469 v 15.63896 c 0,6.48268 5.264222,11.74666 11.746795,11.74666 h 17.603385 c 6.48259,0 11.74679,-5.26398 11.74679,-11.74666 v -15.63896 c 0,-6.48247 -5.2642,-11.7469 -11.74679,-11.7469 z"
       sodipodi:nodetypes="cssssssssssssssssssssccsssssssss" />
  </g>
</svg>
