<svg xmlns="http://www.w3.org/2000/svg" xml:space="preserve" viewBox="0 0 4 4"><defs><filter id="a" width="1.442" height="1.43" x="-.221" y="-.215" color-interpolation-filters="sRGB"><feGaussianBlur stdDeviation=".202"/></filter><filter id="b" width="1.075" height="1.073" x="-.038" y="-.037" color-interpolation-filters="sRGB"><feGaussianBlur stdDeviation=".033"/></filter></defs><g fill="#3ddc84" font-family="Tilt Neon" font-size="5.644" letter-spacing="0"><path stroke="#3ddc84" stroke-linejoin="bevel" stroke-miterlimit="64.6" stroke-width=".277" d="M213.732 11.36c.09.03.165.029.226-.005a.261.261 0 0 0 .13-.147.23.23 0 0 0-.012-.186c-.03-.064-.09-.113-.18-.147a1.207 1.207 0 0 1-.187-.08.895.895 0 0 1-.158-.106.891.891 0 0 1-.13-.153 1.01 1.01 0 0 1-.124-.265 1.28 1.28 0 0 1-.04-.322c0-.184.038-.348.114-.49a.81.81 0 0 1 .316-.34.88.88 0 0 1 .468-.124.88.88 0 0 1 .469.124.81.81 0 0 1 .316.34.999.999 0 0 1 .118.49c0 .113-.015.218-.045.316a.89.89 0 0 1-.322.48 1.117 1.117 0 0 1-.276.13c-.09.034-.15.083-.18.147a.23.23 0 0 0-.012.186.265.265 0 0 0 .124.147c.064.034.14.035.226.005.17-.06.312-.131.429-.214.116-.083.22-.194.31-.333a1.36 1.36 0 0 0 .187-.395c.045-.147.067-.303.067-.469a1.49 1.49 0 0 0-.186-.75 1.308 1.308 0 0 0-.502-.52 1.364 1.364 0 0 0-.723-.192 1.38 1.38 0 0 0-.722.192 1.36 1.36 0 0 0-.503.52 1.53 1.53 0 0 0-.18.75c0 .17.022.328.067.474a1.468 1.468 0 0 0 .497.728c.12.083.26.153.418.21z" aria-label="roboto" filter="url(#a)" style="-inkscape-font-specification:&quot;Tilt Neon&quot;;mix-blend-mode:normal" transform="translate(-212.158 -7.934)"/><path stroke="#fff" stroke-linejoin="bevel" stroke-miterlimit="64.6" stroke-width=".053" d="M213.732 11.36c.09.03.165.029.226-.005a.261.261 0 0 0 .13-.147.23.23 0 0 0-.012-.186c-.03-.064-.09-.113-.18-.147a1.207 1.207 0 0 1-.187-.08.895.895 0 0 1-.158-.106.891.891 0 0 1-.13-.153 1.01 1.01 0 0 1-.124-.265 1.28 1.28 0 0 1-.04-.322c0-.184.038-.348.114-.49a.81.81 0 0 1 .316-.34.88.88 0 0 1 .468-.124.88.88 0 0 1 .469.124.81.81 0 0 1 .316.34.999.999 0 0 1 .118.49c0 .113-.015.218-.045.316a.89.89 0 0 1-.322.48 1.117 1.117 0 0 1-.276.13c-.09.034-.15.083-.18.147a.23.23 0 0 0-.012.186.265.265 0 0 0 .124.147c.064.034.14.035.226.005.17-.06.312-.131.429-.214.116-.083.22-.194.31-.333a1.36 1.36 0 0 0 .187-.395c.045-.147.067-.303.067-.469a1.49 1.49 0 0 0-.186-.75 1.308 1.308 0 0 0-.502-.52 1.364 1.364 0 0 0-.723-.192 1.38 1.38 0 0 0-.722.192 1.36 1.36 0 0 0-.503.52 1.53 1.53 0 0 0-.18.75c0 .17.022.328.067.474a1.468 1.468 0 0 0 .497.728c.12.083.26.153.418.21z" aria-label="roboto" filter="url(#b)" style="-inkscape-font-specification:&quot;Tilt Neon&quot;" transform="translate(-212.158 -7.934)"/><path d="M213.732 11.36c.09.03.165.029.226-.005a.261.261 0 0 0 .13-.147.23.23 0 0 0-.012-.186c-.03-.064-.09-.113-.18-.147a1.207 1.207 0 0 1-.187-.08.895.895 0 0 1-.158-.106.891.891 0 0 1-.13-.153 1.01 1.01 0 0 1-.124-.265 1.28 1.28 0 0 1-.04-.322c0-.184.038-.348.114-.49a.81.81 0 0 1 .316-.34.88.88 0 0 1 .468-.124.88.88 0 0 1 .469.124.81.81 0 0 1 .316.34.999.999 0 0 1 .118.49c0 .113-.015.218-.045.316a.89.89 0 0 1-.322.48 1.117 1.117 0 0 1-.276.13c-.09.034-.15.083-.18.147a.23.23 0 0 0-.012.186.265.265 0 0 0 .124.147c.064.034.14.035.226.005.17-.06.312-.131.429-.214.116-.083.22-.194.31-.333a1.36 1.36 0 0 0 .187-.395c.045-.147.067-.303.067-.469a1.49 1.49 0 0 0-.186-.75 1.308 1.308 0 0 0-.502-.52 1.364 1.364 0 0 0-.723-.192 1.38 1.38 0 0 0-.722.192 1.36 1.36 0 0 0-.503.52 1.53 1.53 0 0 0-.18.75c0 .17.022.328.067.474a1.468 1.468 0 0 0 .497.728c.12.083.26.153.418.21z" aria-label="roboto" style="-inkscape-font-specification:&quot;Tilt Neon&quot;" transform="translate(-212.158 -7.934)"/></g></svg>