<svg xmlns="http://www.w3.org/2000/svg" xml:space="preserve" viewBox="0 0 43 67.2"><g fill="#f69d21" stroke="#f69d21" stroke-miterlimit="64.6"><path stroke-linejoin="bevel" stroke-width=".9" d="M9 11v5.2a13 4.3 0 0 0 13 4.3 13 4.3 0 0 0 13-4.3v-5.3l-13 3.3z"/><path stroke-linecap="round" stroke-linejoin="round" stroke-width="2" d="m2 6 20 5 20-5-20-5zm0 0v9l-1 6h2l-1-6"/></g><path d="M0 59.9v-7.3h14.1v14.6H0zm12-.2v-5.1H1.9v10.2H12zm-8.1.1v-3h6v6H4zM16.2 67V56.8h4v-2.2h-4v-4H7.8v-2h16.4v2h2v-1l.1-1h2v2h2v2h2.2v2h-2.2v2.2h2.2v4h4v-4h-2v-2.1h1l1-.1v2.2h2v8h2v2.4h-4l-4-.1v-2.3h-2.2V63h2.1v-2h-2.1v-4.1h-4v4h-2v2h-2v-2h-4.2v6.4h-1c-.6 0-1 0-1-.2zm20.4-3.2v-1h-2v2h2zm-12.3-5v-2h-4.2v2h2.2v2h2zm0-5.2v-1h-2v-2h-4.2v2h4.2v2h2zm4 0v-1h-2v2h2zM22.5 67v-2.1h2v2.3h-1c-.6 0-1 0-1-.2zm4 0v-2.1h2v2.3h-1c-.6 0-1 0-1-.2zm0-5.1v-1h1l1-.1v2h-2zm14.3-6.2v-1H43v1l.1 1h-2.4zm-2-2v-1h1l1-.1v2h-2.1zm-4-2v-1l1-.1h.9v-4h-2v4h-2v-2h-2.2v-2h2.1v-2.2h-2.1v-4h2.1v4h4.1v2.1h4v2h-2v2h-2v2h-2ZM1.7 48.5v-2H0v-6.2h10v4H7.8v4.2h-4v2h-2zm4.3-3v-1l1-.1h1v-2H6v2H4v2.1h2zm4 0v-1l2.1-.1h2.1v-2h-2v-2h8v-4.1h-2v2h-2v-2l.1-2.1h2l2-.1v-2h2.1v-1l.1-1h2v2h2v8.2h2v2h-2v2h-2v2.2h-4.2v-2.1h-4v2.1H9.8Zm14.4-3.2v-2h-4.2v2h2.2v2h2zm0-6V34h-2v4.2h2zm2 9.2.1-1 1-.1h1v2.1h-2zm14.4-2.1v-1H43v1l.1 1h-2.4zm-6-2v-1h1.9v2h-2zm4 0v-1h2v2h-2.1ZM0 31.3v-7.1h14.1v14.1H0zm12-.1V26H1.9v10.2H12zm-8.1 0v-3l3-.1h3v6H4zm24.5 0v-7H43v14.1H28.4Zm12.2 0V26H30.4v10.2h10.2zm-8 0v-3l3-.1h3v6h-6zm-16.4 0v-1h1l1-.1v-2h2v2h-2v2H16Zm0-4.1v-1h2v-1.9h2v1.9h-2v2H16Zm6.2 0v-1h2v-1.9h2v1.9h-2v2h-2Z"/></svg>