<?xml version="1.0" encoding="UTF-8" standalone="no"?>
<!-- Created with Inkscape (http://www.inkscape.org/) -->

<svg
   width="48.4198mm"
   height="80mm"
   viewBox="0 0 48.4198 80"
   version="1.1"
   id="svg1"
   xmlns="http://www.w3.org/2000/svg"
   xmlns:svg="http://www.w3.org/2000/svg">
  <defs
     id="defs1" />
  <g
     id="layer1"
     transform="translate(-37.768926,-143.08412)">
    <path
       id="path3"
       style="font-size:5.64444px;font-family:Rahovets;-inkscape-font-specification:Rahovets;fill:#1f2328;fill-opacity:1;stroke-width:0.616761;stroke-linecap:round;stroke-linejoin:round"
       d="m 46.188378,177.82746 c -2.302508,0 -4.210134,1.9075 -4.210134,4.21013 v 2.10204 c 0,2.30262 1.907626,4.21013 4.210134,4.21013 h 31.579499 c 2.302625,0 4.210134,-1.90751 4.210134,-4.21013 v -2.10204 c 0,-2.30263 -1.907509,-4.21013 -4.210134,-4.21013 z M 79.87306,143.08412 H 44.084593 c -3.486805,0 -6.315667,2.82886 -6.315667,6.31567 v 16.8417 c 0,3.48669 2.828862,6.31566 6.315667,6.31566 h 9.473442 c 3.486688,0 6.31555,-2.82897 6.31555,-6.31566 v -16.8417 c 0,-1.18418 0.92077,-2.10519 2.1053,-2.10519 1.18418,0 2.105183,0.92077 2.105183,2.10519 v 16.8417 c 0,3.48669 2.828862,6.31566 6.315551,6.31566 h 9.473441 c 3.486922,0 6.315667,-2.82897 6.315667,-6.31566 v -16.8417 c 0,-3.48681 -2.828745,-6.31567 -6.315667,-6.31567 z M 61.978885,208.3476 h 17.894292 c 3.486688,0 6.31555,-2.82886 6.31555,-6.31566 v -2.10507 c 0,-3.48681 -2.828862,-6.31567 -6.31555,-6.31567 H 44.084593 c -3.486688,0 -6.315667,2.82886 -6.315667,6.31567 v 16.84158 c 0,3.48669 2.828979,6.31567 6.315667,6.31567 H 81.97836 c 2.302508,0 4.210367,-1.90786 4.210367,-4.21048 v -2.10519 c 0,-2.30262 -1.907859,-4.21048 -4.210367,-4.21048 H 61.978885 c -1.18418,0 -2.105184,-0.92077 -2.105184,-2.10518 0,-1.18418 0.920771,-2.10519 2.105184,-2.10519 z m -2.105184,-8.42073 c 0,-1.18418 0.920771,-2.10518 2.105184,-2.10518 1.18418,0 2.105183,0.92077 2.105183,2.10518 v 2.10507 c 0,1.18418 -0.92077,2.1053 -2.105183,2.1053 -1.18418,0 -2.105184,-0.92077 -2.105184,-2.1053 z" />
  </g>
</svg>
