<svg xmlns="http://www.w3.org/2000/svg" xmlns:xlink="http://www.w3.org/1999/xlink" viewBox="0 0 43.773 45.377"><defs><filter id="d" width="1.061" height="1.076" x="-.03" y="-.038" color-interpolation-filters="sRGB"><feGaussianBlur stdDeviation=".298"/></filter><filter id="e" width="1.075" height="1.123" x="-.037" y="-.061" color-interpolation-filters="sRGB"><feGaussianBlur stdDeviation=".342"/></filter><filter id="g" width="1.075" height="1.123" x="-.037" y="-.061" color-interpolation-filters="sRGB"><feGaussianBlur stdDeviation=".342"/></filter><filter id="j" width="1.059" height="1.198" x="-.03" y="-.099" color-interpolation-filters="sRGB"><feGaussianBlur stdDeviation=".384"/></filter><filter id="m" width="1.002" height="1.004" x="-.001" y="-.002" color-interpolation-filters="sRGB"><feGaussianBlur stdDeviation=".017"/></filter><filter id="o" width="1.004" height="1.011" x="-.002" y="-.005" color-interpolation-filters="sRGB"><feGaussianBlur stdDeviation=".048"/></filter><filter id="q" width="1.004" height="1.012" x="-.002" y="-.006" color-interpolation-filters="sRGB"><feGaussianBlur stdDeviation=".045"/></filter><filter id="s" width="1.003" height="1.008" x="-.001" y="-.004" color-interpolation-filters="sRGB"><feGaussianBlur stdDeviation=".029"/></filter><linearGradient xlink:href="#a" id="f" x1="815.039" x2="849.648" y1="273.92" y2="291.834" gradientUnits="userSpaceOnUse"/><linearGradient id="a"><stop offset="0" stop-color="#4c83ff"/><stop offset="1" stop-color="#0140d5" stop-opacity=".996"/></linearGradient><linearGradient xlink:href="#b" id="h" x1="1042.042" x2="1074.216" y1="73.037" y2="55.483" gradientUnits="userSpaceOnUse"/><linearGradient id="b"><stop offset="0" stop-color="#cfcfcf"/><stop offset="1" stop-color="#e0e0e0"/></linearGradient><linearGradient xlink:href="#c" id="k" x1="19.351" x2="49.402" y1="46.163" y2="31.533" gradientTransform="translate(74.815 119.44)" gradientUnits="userSpaceOnUse"/><linearGradient id="c"><stop offset="0" stop-color="#a3754d"/><stop offset="1" stop-color="#be8d5d"/></linearGradient><clipPath id="i" clipPathUnits="userSpaceOnUse"><rect width="40" height="20.783" x="1044.155" y="79.951" fill="none" stroke="#000" stroke-dashoffset="7.5" stroke-linecap="round" stroke-miterlimit="64.6" stroke-width=".265" opacity=".86" ry="5.272"/></clipPath><clipPath id="l" clipPathUnits="userSpaceOnUse"/><clipPath id="n" clipPathUnits="userSpaceOnUse"/><clipPath id="p" clipPathUnits="userSpaceOnUse"/><clipPath id="r" clipPathUnits="userSpaceOnUse"/></defs><g transform="translate(-83.08 -125.942)"><g fill="none" stroke="#000" stroke-opacity=".537" filter="url(#d)" transform="translate(90.519 98.278)"><path stroke-linecap="round" stroke-miterlimit="64.6" d="M-5 45v21.825c0 2.77 2.23 5 5 5h30c2.77 0 5-2.23 5-5V55c0-2.77-2.23-5-5-5H0c-2.77 0-5-2.23-5-5Zm5-5h30c2.77 0 5 2.23 5 5v15c0 2.77-2.23 5-5 5H0c-2.77 0-5-2.23-5-5V45c0-2.77 2.23-5 5-5Z" opacity=".993"/></g><rect width="40" height="25" x="85.519" y="138.278" fill="#a2754d" opacity=".993" ry="5"/><g transform="translate(-772.353 84.634)"><rect width="36" height="22" x="-3" y="-2.875" fill="none" stroke="#000" stroke-linecap="round" stroke-miterlimit="64.6" stroke-width="1.058" filter="url(#e)" opacity=".822" ry="2" transform="rotate(-15 636.508 -3241.797)"/><rect width="36" height="22" x="814.35" y="272.327" fill="url(#f)" opacity=".993" ry="2" transform="rotate(-15)"/><rect width="36" height="3" x="814.35" y="276.327" opacity=".993" ry="0" transform="rotate(-15)"/><path fill="none" stroke="#e6edf3" stroke-linecap="round" stroke-miterlimit="64.6" stroke-width="1.058" d="m862.571 61.161 15.455-4.141" opacity=".993"/><path fill="none" stroke="#e6edf3" stroke-dasharray="1.05833,3.17499" stroke-linecap="round" stroke-miterlimit="64.6" stroke-width="1.058" d="m863.256 63.717 15.455-4.141" opacity=".993"/><path fill="none" stroke="#e6edf3" stroke-linecap="round" stroke-miterlimit="64.6" stroke-width="1.058" d="m863.94 66.272 15.456-4.14" opacity=".993"/><path fill="none" stroke="#e6edf3" stroke-dasharray="1.05833,2.11666" stroke-linecap="round" stroke-miterlimit="64.6" stroke-width="1.058" d="m864.626 68.828 15.454-4.141" opacity=".993"/><path fill="#fc0" d="m884.669 55.684.253-.315.377.146-.22-.34.259-.316-.395.106-.221-.344-.02.41-.395.104.382.145zm-1.514.876.253-.315.377.145-.22-.34.259-.315-.395.105-.222-.344-.02.41-.394.105.382.144zm-.82.452-.02.41-.394.105.381.144-.02.404.253-.314.377.145-.22-.34.259-.315-.395.105zm.199 2.495.377.146-.22-.34.259-.316-.395.106-.222-.345-.02.41-.394.105.382.144-.02.404zm.896 1.113-.22-.345-.02.41-.395.105.381.144-.02.404.254-.315.377.146-.22-.34.258-.315zm1.517.875-.222-.344-.02.409-.394.105.382.144-.02.404.253-.314.377.146-.22-.34.259-.316zm1.745-.004-.222-.344-.019.41-.395.105.382.144-.02.404.253-.314.377.145-.22-.34.259-.315zm1.513-.869-.221-.344-.02.409-.395.105.382.144-.02.404.253-.314.377.146-.22-.34.259-.316zm.876-1.517-.222-.344-.02.41-.394.105.382.144-.02.404.253-.315.377.146-.22-.34.258-.315zm.389-1.86-.395.106-.222-.345-.02.41-.394.105.381.145-.02.404.253-.315.377.146-.22-.34zm-1.54-.689.254-.314.377.145-.22-.34.259-.315-.395.106-.222-.345-.02.41-.394.105.382.144zm-1.457-1.935-.02.41-.394.105.381.145-.02.404.254-.315.376.146-.219-.34.258-.316-.395.105z"/><path fill="#fc0" d="m887.934 54.809.253-.315.377.146-.22-.34.259-.316-.395.106-.221-.344-.02.41-.395.104.382.145zm-1.514.875.254-.314.376.145-.22-.34.26-.315-.396.105-.221-.344-.02.41-.395.105.382.144zm-.82.453-.02.41-.394.105.381.144-.02.404.254-.314.376.145-.22-.34.26-.315-.395.105zm.2 2.495.376.146-.22-.34.259-.316-.395.106-.221-.345-.02.41-.395.105.382.144-.02.405zm.896 1.112-.222-.344-.02.41-.394.105.382.144-.02.404.253-.315.377.146-.22-.34.258-.315zm1.516.876-.221-.344-.02.409-.395.105.382.144-.02.405.253-.315.377.146-.22-.34.259-.316zm1.745-.003-.221-.345-.02.41-.395.105.382.144-.02.404.253-.314.377.146-.22-.34.259-.316zm1.513-.87-.221-.344-.02.409-.394.105.381.144-.02.405.253-.315.377.146-.22-.34.259-.316zm.876-1.517-.222-.344-.02.41-.394.105.382.144-.02.404.253-.315.377.146-.22-.34.258-.315zm.389-1.86-.395.106-.222-.345-.02.41-.394.105.382.145-.02.404.253-.315.376.146-.219-.34zm-1.539-.689.253-.314.377.145-.22-.34.259-.315-.394.106-.222-.345-.02.41-.395.105.382.144zm-1.458-1.935-.02.41-.394.105.381.145-.02.404.254-.315.377.146-.22-.34.259-.316-.395.105z"/></g><g transform="translate(-953.697 92.795)"><rect width="36" height="22" x="1040.565" y="52.362" fill="none" stroke="#000" stroke-linecap="round" stroke-miterlimit="64.6" stroke-width="1.058" filter="url(#g)" opacity=".341" ry="2"/><rect width="36" height="22" x="1040.565" y="52.362" fill="url(#h)" opacity=".993" ry="2"/></g><path fill="none" stroke="#000" stroke-linecap="round" stroke-miterlimit="64.6" stroke-width=".529" d="M1084.156 95.242c0-2.77-2.23-5-5-5h-30c-2.77 0-5-2.23-5-5m0 0c0-.7.142-1.364.399-1.968" clip-path="url(#i)" filter="url(#j)" style="mix-blend-mode:normal" transform="translate(-958.637 58.036)"/><path fill="url(#k)" d="M85.519 143.278v21.825c0 2.77 2.23 5 5 5h30c2.77 0 5-2.23 5-5v-11.825c0-2.77-2.23-5-5-5h-30c-2.77 0-5-2.23-5-5z" opacity=".993"/><path fill="#d4aa89" d="M123.367 152.22a.65.65 0 1 1-1.3 0 .65.65 0 0 1 1.3 0zm-2.646 0a.65.65 0 1 1-1.3 0 .65.65 0 0 1 1.3 0zm-2.646 0a.65.65 0 1 1-1.3 0 .65.65 0 0 1 1.3 0zm-2.645 0a.65.65 0 1 1-1.3 0 .65.65 0 0 1 1.3 0zm-2.646 0a.65.65 0 1 1-1.3 0 .65.65 0 0 1 1.3 0zm-2.646 0a.65.65 0 1 1-1.3 0 .65.65 0 0 1 1.3 0zm-2.646 0a.65.65 0 1 1-1.3 0 .65.65 0 0 1 1.3 0zm-2.646 0a.65.65 0 1 1-1.3 0 .65.65 0 0 1 1.3 0zm-2.646 0a.65.65 0 1 1-1.3 0 .65.65 0 0 1 1.3 0zm-2.646 0a.65.65 0 1 1-1.3 0 .65.65 0 0 1 1.3 0zm-2.646 0a.65.65 0 1 1-1.3 0 .65.65 0 0 1 1.3 0zm-2.646 0a.65.65 0 1 1-1.3 0 .65.65 0 0 1 1.3 0zm-2.645 0a.65.65 0 1 1-1.3 0 .65.65 0 0 1 1.3 0zm-2.646 0a.65.65 0 1 1-1.3 0 .65.65 0 0 1 1.3 0z" opacity=".932"/><use xlink:href="#reuse-0" clip-path="url(#l)" filter="url(#m)" opacity=".604" transform="translate(74.815 83.457)"/><use xlink:href="#reuse-1" fill-opacity=".933" clip-path="url(#n)" filter="url(#o)" opacity=".697" style="mix-blend-mode:normal" transform="translate(74.806 83.466)"/><path fill="#d4aa89" d="M123.367 166.507a.65.65 0 1 1-1.3 0 .65.65 0 0 1 1.3 0zm-2.646 0a.65.65 0 1 1-1.3 0 .65.65 0 0 1 1.3 0zm-2.646 0a.65.65 0 1 1-1.3 0 .65.65 0 0 1 1.3 0zm-2.645 0a.65.65 0 1 1-1.3 0 .65.65 0 0 1 1.3 0zm-2.646 0a.65.65 0 1 1-1.3 0 .65.65 0 0 1 1.3 0zm-2.646 0a.65.65 0 1 1-1.3 0 .65.65 0 0 1 1.3 0zm-2.646 0a.65.65 0 1 1-1.3 0 .65.65 0 0 1 1.3 0zm-2.646 0a.65.65 0 1 1-1.3 0 .65.65 0 0 1 1.3 0zm-2.646 0a.65.65 0 1 1-1.3 0 .65.65 0 0 1 1.3 0zm-2.646 0a.65.65 0 1 1-1.3 0 .65.65 0 0 1 1.3 0zm-2.646 0a.65.65 0 1 1-1.3 0 .65.65 0 0 1 1.3 0zm-2.646 0a.65.65 0 1 1-1.3 0 .65.65 0 0 1 1.3 0zm-2.645 0a.65.65 0 1 1-1.3 0 .65.65 0 0 1 1.3 0zm-2.646 0a.65.65 0 1 1-1.3 0 .65.65 0 0 1 1.3 0z" opacity=".932"/><use xlink:href="#reuse-0" clip-path="url(#l)" filter="url(#m)" opacity=".604" transform="translate(74.815 97.744)"/><use xlink:href="#reuse-1" fill-opacity=".933" clip-path="url(#n)" filter="url(#o)" opacity=".697" style="mix-blend-mode:normal" transform="translate(74.806 97.753)"/><g fill="#d4aa89" fill-opacity=".933" font-family="VALORANT" font-size="12.7" opacity=".86" text-anchor="middle"><path d="M46.989 62.063c.034.033.038.072.013.114-.026.042-.06.063-.102.063h-1.613a.517.517 0 0 1-.419-.203l-6.528-8.509c-.034-.034-.038-.072-.012-.114.025-.042.059-.064.101-.064h1.613c.17 0 .31.068.42.204zm6.3 0c.034.033.038.072.012.114-.025.042-.059.063-.101.063h-1.613a.517.517 0 0 1-.42-.203l-6.527-8.509c-.034-.034-.038-.072-.013-.114.026-.042.06-.064.102-.064h1.613c.17 0 .309.068.419.204zm-3.15 0c.034.033.038.072.013.114-.026.042-.06.063-.102.063h-1.613a.517.517 0 0 1-.419-.203l-6.528-8.509c-.034-.034-.038-.072-.013-.114.026-.042.06-.064.102-.064h1.613c.17 0 .309.068.42.204z" style="-inkscape-font-specification:VALORANT;text-align:center" transform="translate(63.823 111.677) scale(.82611879)"/><path d="m57.293 57.732 3.188-4.153a.517.517 0 0 1 .419-.203h1.613c.05 0 .084.02.101.063.026.034.026.072 0 .115l-3.276 4.267 3.264 4.267c.034.042.038.085.012.127-.017.034-.05.05-.101.05H60.9a.517.517 0 0 1-.42-.202l-3.187-4.14c-.042-.068-.042-.132 0-.191zm-6.153 0 3.188-4.153a.517.517 0 0 1 .419-.203h1.613c.05 0 .085.02.101.063.026.034.026.072 0 .115l-3.276 4.267 3.264 4.267c.034.042.038.085.012.127-.016.034-.05.05-.101.05h-1.613a.517.517 0 0 1-.42-.202l-3.187-4.14c-.042-.068-.042-.132 0-.191z" letter-spacing="0" style="-inkscape-font-specification:VALORANT;text-align:center" transform="translate(63.823 111.677) scale(.82611879)"/><path d="m54.217 57.732 3.187-4.153a.517.517 0 0 1 .42-.203h1.612c.051 0 .085.02.102.063.025.034.025.072 0 .115L56.26 57.82l3.264 4.267c.034.042.038.085.013.127-.017.034-.05.05-.102.05h-1.613a.517.517 0 0 1-.419-.202l-3.187-4.14c-.043-.068-.043-.132 0-.191z" letter-spacing="0" style="-inkscape-font-specification:VALORANT;text-align:center" transform="translate(63.823 111.677) scale(.82611879)"/></g><path fill="#d4d4d4" fill-opacity=".933" d="M11.291 54.546a8.832 8.832 0 0 0-8.85 8.85 8.832 8.832 0 0 0 8.85 8.852h36.126a8.832 8.832 0 0 0 8.85-8.851 8.832 8.832 0 0 0-8.85-8.851zm9.472 6.392h1.332c.14 0 .256.056.347.168l5.392 7.03c.028.027.031.059.01.094-.02.035-.048.053-.083.053h-1.333a.427.427 0 0 1-.346-.168l-5.393-7.03c-.028-.028-.031-.06-.01-.094.02-.035.049-.053.084-.053zm2.602 0h1.332c.14 0 .256.056.346.168l5.393 7.03c.028.027.032.059.01.094-.02.035-.048.053-.083.053H29.03a.427.427 0 0 1-.346-.168l-5.392-7.03c-.028-.028-.032-.06-.011-.094.02-.035.049-.053.084-.053zm2.602 0H27.3c.14 0 .255.056.346.168l5.392 7.03c.028.027.032.059.011.094-.02.035-.05.053-.084.053h-1.332a.427.427 0 0 1-.347-.168l-5.392-7.03c-.028-.028-.032-.06-.01-.094.02-.035.048-.053.083-.053zm8.276.021h1.333c.042 0 .07.018.083.053.021.028.021.06 0 .094l-2.706 3.525 2.696 3.526c.028.035.031.07.01.104-.014.028-.041.042-.083.042h-1.333a.427.427 0 0 1-.346-.168l-2.634-3.42c-.035-.056-.035-.108 0-.157l2.634-3.431a.427.427 0 0 1 .346-.168zm2.542 0h1.332c.042 0 .07.018.084.053.02.028.02.06 0 .094l-2.707 3.525 2.696 3.526c.028.035.032.07.01.104-.013.028-.041.042-.083.042h-1.332a.427.427 0 0 1-.346-.168l-2.634-3.42c-.035-.056-.035-.108 0-.157l2.634-3.431a.427.427 0 0 1 .346-.168zm2.541 0h1.332c.042 0 .07.018.085.053.02.028.02.06 0 .094l-2.708 3.525 2.697 3.526c.028.035.032.07.01.104-.013.028-.042.042-.084.042h-1.332a.427.427 0 0 1-.346-.168l-2.633-3.42c-.035-.056-.035-.108 0-.157l2.633-3.431a.427.427 0 0 1 .346-.168z" clip-path="url(#p)" filter="url(#q)" opacity=".535" style="mix-blend-mode:normal" transform="translate(74.722 94.824)"/><path fill="#110f0c" d="M11.291 54.546a8.832 8.832 0 0 0-8.85 8.85 8.832 8.832 0 0 0 8.85 8.852h36.126a8.832 8.832 0 0 0 8.85-8.851 8.832 8.832 0 0 0-8.85-8.851zm9.472 6.392h1.332c.14 0 .256.056.347.168l5.392 7.03c.028.027.031.059.01.094-.02.035-.048.053-.083.053h-1.333a.427.427 0 0 1-.346-.168l-5.393-7.03c-.028-.028-.031-.06-.01-.094.02-.035.049-.053.084-.053zm2.602 0h1.332c.14 0 .256.056.346.168l5.393 7.03c.028.027.032.059.01.094-.02.035-.048.053-.083.053H29.03a.427.427 0 0 1-.346-.168l-5.392-7.03c-.028-.028-.032-.06-.011-.094.02-.035.049-.053.084-.053zm2.602 0H27.3c.14 0 .255.056.346.168l5.392 7.03c.028.027.032.059.011.094-.02.035-.05.053-.084.053h-1.332a.427.427 0 0 1-.347-.168l-5.392-7.03c-.028-.028-.032-.06-.01-.094.02-.035.048-.053.083-.053zm8.276.021h1.333c.042 0 .07.018.083.053.021.028.021.06 0 .094l-2.706 3.525 2.696 3.526c.028.035.031.07.01.104-.014.028-.041.042-.083.042h-1.333a.427.427 0 0 1-.346-.168l-2.634-3.42c-.035-.056-.035-.108 0-.157l2.634-3.431a.427.427 0 0 1 .346-.168zm2.542 0h1.332c.042 0 .07.018.084.053.02.028.02.06 0 .094l-2.707 3.525 2.696 3.526c.028.035.032.07.01.104-.013.028-.041.042-.083.042h-1.332a.427.427 0 0 1-.346-.168l-2.634-3.42c-.035-.056-.035-.108 0-.157l2.634-3.431a.427.427 0 0 1 .346-.168zm2.541 0h1.332c.042 0 .07.018.085.053.02.028.02.06 0 .094l-2.708 3.525 2.697 3.526c.028.035.032.07.01.104-.013.028-.042.042-.084.042h-1.332a.427.427 0 0 1-.346-.168l-2.633-3.42c-.035-.056-.035-.108 0-.157l2.633-3.431a.427.427 0 0 1 .346-.168z" clip-path="url(#r)" filter="url(#s)" opacity=".697" style="mix-blend-mode:normal" transform="translate(74.785 94.804)"/></g></svg>