<svg xmlns="http://www.w3.org/2000/svg" xml:space="preserve" viewBox="0 0 5.211 4.429"><defs><filter id="a" width="1.415" height="1.52" x="-.207" y="-.26" color-interpolation-filters="sRGB"><feGaussianBlur stdDeviation=".218"/></filter></defs><g fill="#ccc" stroke="#ccc" stroke-linejoin="bevel" filter="url(#a)" style="mix-blend-mode:normal" transform="translate(-180.36 -7.238)"/><path fill="#01f9fe" stroke="#333" stroke-linejoin="bevel" stroke-width=".5" d="m182.858 8.832-.361-1.344h2.843l-1.615 3.929h-.173l-.587-2.185-.587 2.185h-.173l-1.614-3.929h.214l1.462 3.544zm2.175-1.135h-2.265l.304 1.135.591 2.2z" aria-label="WARden" font-family="Major Mono Display" font-size="5.644" letter-spacing="0" style="-inkscape-font-specification:&quot;Major Mono Display&quot;" transform="translate(-180.36 -7.238)"/><path fill="#01f9fe" d="m182.858 8.832-.361-1.344h2.843l-1.615 3.929h-.173l-.587-2.185-.587 2.185h-.173l-1.614-3.929h.214l1.462 3.544zm2.175-1.135h-2.265l.304 1.135.591 2.2z" aria-label="WARden" font-family="Major Mono Display" font-size="5.644" letter-spacing="0" style="-inkscape-font-specification:&quot;Major Mono Display&quot;" transform="translate(-180.36 -7.238)"/></svg>